<svg width="12" height="12" viewBox="0 0 12 12" fill="none" xmlns="http://www.w3.org/2000/svg">
<mask id="mask0_860_2297" style="mask-type:alpha" maskUnits="userSpaceOnUse" x="0" y="0" width="12" height="12">
<path d="M0.412708 4.22018C0.346118 4.24237 0.287092 4.2828 0.242344 4.33688C0.197596 4.39095 0.168922 4.4565 0.159584 4.52606C0.150246 4.59563 0.160619 4.66642 0.189522 4.73038C0.218426 4.79434 0.264701 4.84891 0.323082 4.88787L3.63924 6.71592C3.70104 6.74997 3.7712 6.7659 3.84166 6.76187C3.91211 6.75783 3.98 6.734 4.03751 6.69311L7.5605 4.18094C7.73073 4.06692 7.93438 4.27056 7.82036 4.4408L5.30818 7.96378C5.26729 8.0213 5.24346 8.08918 5.23943 8.15964C5.23539 8.23009 5.25132 8.30025 5.28538 8.36206L7.11343 11.6782C7.15239 11.7366 7.20696 11.7829 7.27092 11.8118C7.33488 11.8407 7.40567 11.8511 7.47523 11.8417C7.5448 11.8324 7.61035 11.8037 7.66442 11.759C7.7185 11.7142 7.75893 11.6552 7.78111 11.5886L11.2283 1.24715C11.2502 1.18112 11.2533 1.11029 11.2373 1.04258C11.2213 0.974863 11.1868 0.912943 11.1376 0.863741C11.0884 0.81454 11.0264 0.779998 10.9587 0.763979C10.891 0.74796 10.8202 0.751096 10.7541 0.773037L0.412708 4.22018Z" fill="white"/>
</mask>
<g mask="url(#mask0_860_2297)">
<rect width="12" height="12" fill="#F9FAFB"/>
</g>
</svg>
