<svg width="10" height="10" viewBox="0 0 10 10" fill="none" xmlns="http://www.w3.org/2000/svg">
<path d="M7.81221 3.4375H4.68721C4.60433 3.4375 4.52485 3.47042 4.46624 3.52903C4.40764 3.58763 4.37471 3.66712 4.37471 3.75V5C4.37547 5.44269 4.53271 5.87086 4.81864 6.20882C5.10456 6.54679 5.50077 6.77279 5.93721 6.84687V8.75H4.99971V9.375H7.49971V8.75H6.56221V6.84687C6.99866 6.77279 7.39486 6.54679 7.68079 6.20882C7.96671 5.87086 8.12395 5.44269 8.12471 5V3.75C8.12471 3.66712 8.09179 3.58763 8.03318 3.52903C7.97458 3.47042 7.89509 3.4375 7.81221 3.4375ZM7.49971 5C7.49971 5.33152 7.36802 5.64946 7.1336 5.88388C6.89918 6.1183 6.58123 6.25 6.24971 6.25C5.91819 6.25 5.60025 6.1183 5.36583 5.88388C5.13141 5.64946 4.99971 5.33152 4.99971 5V4.0625H7.49971V5Z" fill="black"/>
<path d="M4.68721 0.3125H3.12471C3.04183 0.3125 2.96235 0.345424 2.90374 0.404029C2.84514 0.462634 2.81221 0.54212 2.81221 0.625V2.92812C2.50855 3.10602 2.26016 3.36464 2.09466 3.67524C1.92916 3.98583 1.85302 4.33623 1.87471 4.6875V9.0625C1.87471 9.14538 1.90764 9.22487 1.96624 9.28347C2.02485 9.34208 2.10433 9.375 2.18721 9.375H3.74971V8.75H2.49971V4.6875C2.49971 3.69125 3.1969 3.43125 3.22346 3.42156L3.43721 3.35V0.9375H4.37471V2.5H4.99971V0.625C4.99971 0.54212 4.96679 0.462634 4.90818 0.404029C4.84958 0.345424 4.77009 0.3125 4.68721 0.3125Z" fill="black"/>
</svg>
