<svg width="48" height="48" viewBox="0 0 48 48" fill="none" xmlns="http://www.w3.org/2000/svg">
<circle cx="24" cy="24" r="20" stroke="black" stroke-width="4" stroke-dasharray="1.1 8"/>
<path d="M24 33.75L25.305 34.5L27.87 30H31.5C32.2956 30 33.0587 29.6839 33.6213 29.1213C34.1839 28.5587 34.5 27.7956 34.5 27V18C34.5 17.2044 34.1839 16.4413 33.6213 15.8787C33.0587 15.3161 32.2956 15 31.5 15H16.5C15.7044 15 14.9413 15.3161 14.3787 15.8787C13.8161 16.4413 13.5 17.2044 13.5 18V27C13.5 27.7956 13.8161 28.5587 14.3787 29.1213C14.9413 29.6839 15.7044 30 16.5 30H23.25V28.5H16.5C16.1022 28.5 15.7206 28.342 15.4393 28.0607C15.158 27.7794 15 27.3978 15 27V18C15 17.6022 15.158 17.2206 15.4393 16.9393C15.7206 16.658 16.1022 16.5 16.5 16.5H31.5C31.8978 16.5 32.2794 16.658 32.5607 16.9393C32.842 17.2206 33 17.6022 33 18V27C33 27.3978 32.842 27.7794 32.5607 28.0607C32.2794 28.342 31.8978 28.5 31.5 28.5H27L24 33.75Z" fill="black"/>
<path d="M30 19.5H18V21H30V19.5Z" fill="black"/>
<path d="M25.5 24H18V25.5H25.5V24Z" fill="black"/>
</svg>
