<svg width="48" height="48" viewBox="0 0 48 48" fill="none" xmlns="http://www.w3.org/2000/svg">
<circle cx="24" cy="24" r="20" stroke="black" stroke-width="4" stroke-dasharray="1.1 8"/>
<path d="M22.5 28.0605L18.75 24.3098L19.8098 23.25L22.5 25.9395L28.1887 20.25L29.25 21.3112L22.5 28.0605Z" fill="black"/>
<path d="M24 13.5C21.9233 13.5 19.8932 14.1158 18.1665 15.2696C16.4398 16.4233 15.094 18.0632 14.2993 19.9818C13.5045 21.9004 13.2966 24.0116 13.7018 26.0484C14.1069 28.0852 15.1069 29.9562 16.5754 31.4246C18.0438 32.8931 19.9148 33.8931 21.9516 34.2982C23.9884 34.7034 26.0996 34.4955 28.0182 33.7007C29.9368 32.906 31.5767 31.5602 32.7304 29.8335C33.8842 28.1068 34.5 26.0767 34.5 24C34.5 21.2152 33.3938 18.5445 31.4246 16.5754C29.4555 14.6062 26.7848 13.5 24 13.5ZM24 33C22.22 33 20.4799 32.4722 18.9999 31.4832C17.5198 30.4943 16.3663 29.0887 15.6851 27.4442C15.0039 25.7996 14.8257 23.99 15.1729 22.2442C15.5202 20.4984 16.3774 18.8947 17.636 17.636C18.8947 16.3774 20.4984 15.5202 22.2442 15.1729C23.99 14.8257 25.7996 15.0039 27.4442 15.6851C29.0887 16.3663 30.4943 17.5198 31.4832 18.9999C32.4722 20.4799 33 22.22 33 24C33 26.3869 32.0518 28.6761 30.364 30.364C28.6761 32.0518 26.387 33 24 33Z" fill="black"/>
</svg>
