<svg width="304" height="30" viewBox="0 0 304 30" fill="none" xmlns="http://www.w3.org/2000/svg">
<rect x="0.5" y="0.5" width="303" height="29" rx="14.5" fill="white" fill-opacity="0.2"/>
<path d="M28.6892 14.9323V15.8577H32.2666V16.4931H24.3522V15.8577H27.9296V14.9323H25.4019V11.4586H26.1685V12.5635H30.4641V11.4586H31.2307V14.9323H28.6892ZM30.4641 13.1713H26.1685V14.3108H30.4641V13.1713ZM25.3743 17.1837H26.1478V18.9655H31.3826V19.6008H25.3743V17.1837ZM42.241 14.076V11.1133H43.0007V19.808H42.241V14.7044H40.183V14.076H42.241ZM38.857 11.866V13.4475C38.857 15.0152 39.8653 16.5967 41.1291 17.1768L40.6664 17.7983C39.6789 17.2907 38.8639 16.2514 38.4772 15.0186C38.0939 16.317 37.279 17.4289 36.288 17.9572L35.7976 17.3425C37.0684 16.7141 38.0767 15.0428 38.0836 13.4475V11.866H38.857ZM50.9853 11.1133H51.7518V19.808H50.9853V11.1133ZM45.1013 11.8522H45.8679V14.145H48.4507V11.8522H49.2104V17.7086H45.1013V11.8522ZM45.8679 14.7597V17.0663H48.4507V14.7597H45.8679ZM57.3227 13.6167C56.7599 14.8874 55.3856 15.8198 54.0734 16.1271L53.7212 15.4848C55.2267 15.1948 56.9118 13.8826 56.9187 12.3909V11.721H57.7198V12.3909C57.7198 13.8757 59.4187 15.2017 60.9311 15.4848L60.572 16.1271C59.2633 15.8232 57.8856 14.8943 57.3227 13.6167ZM53.3897 18.6133V17.971H61.3386V18.6133H53.3897ZM64.0193 13.7445H69.1989V14.366H63.2596V11.4309H64.0193V13.7445ZM62.1685 16.1685V15.547H70.1174V16.1685H62.1685ZM63.2044 17.0525H63.9641V18.9448H69.2541V19.5801H63.2044V17.0525ZM78.31 14.0138V13.3785H80.0642V11.1133H80.8308V16.2859H80.0642V14.0138H78.31ZM76.2831 13.9862C75.9102 15.0014 75.1056 15.8128 74.0697 16.203L73.6692 15.5953C74.9606 15.1257 75.8791 13.9517 75.8791 12.7086V12.384H73.9178V11.7486H78.5932V12.384H76.6526V12.7017C76.6526 13.8343 77.5228 14.9116 78.7935 15.3467L78.3929 15.9613C77.4157 15.6091 76.6595 14.8805 76.2831 13.9862ZM77.9509 16.5552C79.7534 16.5552 80.8584 17.1492 80.8584 18.1713C80.8584 19.1934 79.7534 19.7804 77.9509 19.7873C76.1415 19.7804 75.0366 19.1934 75.0435 18.1713C75.0366 17.1492 76.1415 16.5552 77.9509 16.5552ZM77.9509 19.1727C79.2769 19.1796 80.0987 18.7997 80.0987 18.1713C80.0987 17.5359 79.2769 17.1561 77.9509 17.1561C76.6181 17.1561 75.7962 17.5359 75.8031 18.1713C75.7962 18.7997 76.6181 19.1796 77.9509 19.1727ZM88.8291 16.3412V11.1133H89.5957V16.3412H88.8291ZM85.1171 13.7307C84.7373 14.7631 83.9362 15.5746 82.9106 15.9682L82.5101 15.3674C83.8153 14.884 84.72 13.6823 84.72 12.3702V11.5345H85.5004V12.3702C85.4935 13.634 86.412 14.7597 87.7035 15.2086L87.3098 15.8163C86.3015 15.4468 85.5073 14.6975 85.1171 13.7307ZM88.8291 17.4047H83.7532V16.7762H89.5957V19.7942H88.8291V17.4047ZM100.316 14.076V11.1133H101.076V19.808H100.316V14.7044H98.258V14.076H100.316ZM96.932 11.866V13.4475C96.932 15.0152 97.9403 16.5967 99.2041 17.1768L98.7414 17.7983C97.7539 17.2907 96.9389 16.2514 96.5522 15.0186C96.1689 16.317 95.354 17.4289 94.363 17.9572L93.8726 17.3425C95.1434 16.7141 96.1517 15.0428 96.1586 13.4475V11.866H96.932ZM109.06 11.1133H109.827V19.808H109.06V11.1133ZM103.176 11.8522H103.943V14.145H106.526V11.8522H107.285V17.7086H103.176V11.8522ZM103.943 14.7597V17.0663H106.526V14.7597H103.943ZM115.398 13.6167C114.835 14.8874 113.461 15.8198 112.148 16.1271L111.796 15.4848C113.302 15.1948 114.987 13.8826 114.994 12.3909V11.721H115.795V12.3909C115.795 13.8757 117.494 15.2017 119.006 15.4848L118.647 16.1271C117.338 15.8232 115.961 14.8943 115.398 13.6167ZM111.465 18.6133V17.971H119.414V18.6133H111.465ZM126.977 14.6423H128.386V15.2914H126.977V19.7873H126.21V11.1133H126.977V14.6423ZM120.72 12.0456H124.732C124.726 14.5041 123.572 16.7417 120.741 18.1367L120.313 17.5359C122.557 16.4206 123.779 14.7493 123.952 12.6878H120.72V12.0456ZM138.429 14.5801H139.88V15.2362H138.429V19.7942H137.663V11.1133H138.429V14.5801ZM134.03 11.7831C135.315 11.7901 136.219 12.9641 136.226 14.808C136.219 16.6588 135.315 17.8329 134.03 17.8329C132.746 17.8329 131.841 16.6588 131.848 14.808C131.841 12.9641 132.746 11.7901 134.03 11.7831ZM134.03 17.1492C134.9 17.1492 135.487 16.2238 135.487 14.808C135.487 13.3992 134.9 12.4738 134.03 12.4669C133.174 12.4738 132.573 13.3992 132.573 14.808C132.573 16.2238 133.174 17.1492 134.03 17.1492ZM146.904 11.1202H147.671V17.4254H146.904V11.1202ZM145.937 14.7182L146.048 15.3674C144.625 15.6575 143.348 15.7541 141.752 15.7541H141.048V11.7624H141.821V15.0981C143.351 15.1015 144.591 15.0186 145.937 14.7182ZM142.747 16.7901V18.9655H147.94V19.6008H141.98V16.7901H142.747ZM155.066 11.8867H157.141V12.7465H151.903V11.8867H153.985V11.0028H155.066V11.8867ZM158.861 13.3888H160.093V14.2762H158.861V16.5691H157.769V11.0442H158.861V13.3888ZM156.678 14.7044C156.675 15.6713 155.798 16.317 154.527 16.317C153.246 16.317 152.355 15.6713 152.359 14.7044C152.355 13.7376 153.246 13.0919 154.527 13.0884C155.798 13.0919 156.675 13.7376 156.678 14.7044ZM153.412 14.7044C153.405 15.2017 153.854 15.4814 154.527 15.4779C155.194 15.4814 155.642 15.2017 155.649 14.7044C155.642 14.2037 155.194 13.9137 154.527 13.9102C153.854 13.9137 153.405 14.2037 153.412 14.7044ZM157.769 17.8536H152.977V16.98H158.861V19.8633H157.769V17.8536ZM166.997 13.0573V11.0442H168.081V15.7818H166.997V13.9275H165.405C165.202 14.922 164.293 15.5919 163.137 15.5919C161.787 15.5919 160.802 14.7251 160.809 13.5028C160.802 12.2977 161.787 11.4275 163.137 11.4309C164.283 11.4275 165.184 12.087 165.402 13.0573H166.997ZM163.137 14.6768C163.882 14.6768 164.414 14.2072 164.414 13.5028C164.414 12.7914 163.882 12.3356 163.137 12.3391C162.377 12.3356 161.842 12.7914 161.842 13.5028C161.842 14.2072 162.377 14.6768 163.137 14.6768ZM163.337 17.125H166.997V16.1892H168.081V19.7597H162.263V16.1892H163.337V17.125ZM163.337 18.8791H166.997V17.971H163.337V18.8791ZM175.621 14.1727V15.288H177.523V16.1581H169.481V15.288H171.353V14.1657C170.69 13.8826 170.313 13.4406 170.317 12.8639C170.313 11.8108 171.546 11.1892 173.497 11.1858C175.441 11.1892 176.674 11.8108 176.674 12.8639C176.674 13.4441 176.294 13.8895 175.621 14.1727ZM173.497 12.0249C172.192 12.0249 171.435 12.3253 171.442 12.8639C171.435 13.4061 172.192 13.6927 173.497 13.6927C174.795 13.6927 175.558 13.4061 175.558 12.8639C175.558 12.3253 174.795 12.0249 173.497 12.0249ZM172.447 14.4489V15.288H174.54V14.4489C174.222 14.4903 173.873 14.5145 173.497 14.5145C173.117 14.5145 172.768 14.4903 172.447 14.4489ZM173.49 16.6899C175.393 16.6865 176.546 17.2493 176.549 18.2645C176.546 19.2935 175.393 19.8529 173.49 19.8494C171.567 19.8529 170.417 19.2935 170.417 18.2645C170.417 17.2493 171.567 16.6865 173.49 16.6899ZM173.49 19.0276C174.757 19.0345 175.458 18.7652 175.465 18.2645C175.458 17.7742 174.757 17.5186 173.49 17.5117C172.209 17.5186 171.515 17.7742 171.522 18.2645C171.515 18.7652 172.209 19.0345 173.49 19.0276ZM187.119 13.8964V11.0442H188.196V19.884H187.119V14.7735H185.272V13.8964H187.119ZM184.056 11.7521V13.1644C184.056 14.8011 184.84 16.4102 186.249 17.0318L185.589 17.8985C184.592 17.4081 183.891 16.4724 183.511 15.3191C183.127 16.538 182.409 17.5497 181.394 18.0608L180.71 17.1802C182.147 16.5104 182.948 14.808 182.955 13.1644V11.7521H184.056ZM195.839 11.0442H196.934V19.884H195.839V11.0442ZM190.052 11.7624H191.14V13.9689H193.277V11.7624H194.351V17.7983H190.052V11.7624ZM191.14 14.8184V16.9075H193.277V14.8184H191.14ZM202.37 13.8239C201.79 15.0014 200.578 15.8992 199.103 16.2134L198.627 15.3087C200.447 14.9772 201.783 13.6098 201.79 12.2493V11.6001H202.943V12.2493C202.94 13.6167 204.276 14.9841 206.124 15.3087L205.637 16.2134C204.155 15.9061 202.943 15.0117 202.37 13.8239ZM198.382 18.7445V17.8467H206.452V18.7445H198.382ZM213.635 11.1202H214.402V16.0787H213.635V11.1202ZM209.712 11.576C211.031 11.576 211.984 12.3978 211.984 13.6133C211.984 14.8011 211.031 15.6298 209.712 15.6298C208.393 15.6298 207.433 14.8011 207.433 13.6133C207.433 12.3978 208.393 11.576 209.712 11.576ZM209.712 12.232C208.821 12.2251 208.179 12.7983 208.186 13.6133C208.179 14.4144 208.821 14.9807 209.712 14.9807C210.596 14.9807 211.239 14.4144 211.239 13.6133C211.239 12.7983 210.596 12.2251 209.712 12.232ZM208.752 16.5483H214.402V19.6768H208.752V16.5483ZM213.649 17.1699H209.512V19.0483H213.649V17.1699ZM219.976 14.2831C218.042 14.2762 216.903 13.7445 216.903 12.7638C216.903 11.797 218.042 11.2652 219.976 11.2652C221.91 11.2652 223.042 11.797 223.042 12.7638C223.042 13.7445 221.91 14.2762 219.976 14.2831ZM219.976 11.8453C218.539 11.8453 217.697 12.1906 217.704 12.7638C217.697 13.3646 218.539 13.6961 219.976 13.6961C221.419 13.6961 222.262 13.3646 222.262 12.7638C222.262 12.1906 221.419 11.8453 219.976 11.8453ZM216.026 15.4917V14.8702H223.94V15.4917H216.026ZM222.918 18.1851H217.759V19.0898H223.18V19.6975H217.006V17.6188H222.165V16.8315H216.986V16.2445H222.918V18.1851ZM234.267 11.1064V13.7514H235.572V14.4006H234.267V17.5152H233.5V11.1064H234.267ZM232.202 13.8619C232.195 15.1188 231.221 16.0028 229.923 16.0028C228.624 16.0028 227.637 15.1188 227.644 13.8619C227.637 12.605 228.624 11.7279 229.923 11.7279C231.221 11.7279 232.195 12.605 232.202 13.8619ZM228.396 13.8619C228.39 14.7182 229.059 15.326 229.923 15.326C230.793 15.326 231.449 14.7182 231.456 13.8619C231.449 13.0055 230.793 12.3978 229.923 12.3978C229.059 12.3978 228.39 13.0055 228.396 13.8619ZM228.832 16.8522H229.591V18.9655H234.667V19.6008H228.832V16.8522ZM242.935 14.6492V11.1133H243.681V19.7942H242.935V15.2983H241.678V19.3384H240.953V11.3066H241.678V14.6492H242.935ZM237.472 12.1699V16.8591C238.329 16.8557 239.257 16.7935 240.318 16.5829L240.407 17.2597C239.199 17.4807 238.204 17.5428 237.251 17.5428H236.706V12.1699H237.472ZM246.838 15.2845H252.073V15.9199H246.078V11.9213H251.99V12.5566H246.838V15.2845ZM245.063 18.6064V17.9641H253.012V18.6064H245.063ZM260.258 15.8854V11.1202H261.024V15.8854H260.258ZM259.173 14.7873L259.27 15.4227C257.806 15.6575 256.618 15.6989 255.016 15.7058H254.312V13.2749H257.502V12.1699H254.291V11.5414H258.262V13.8826H255.057V15.0635C256.611 15.0566 257.771 15.0186 259.173 14.7873ZM256.149 17.3564H260.265V16.3204H261.024V19.6768H255.375V16.3204H256.149V17.3564ZM256.149 19.0483H260.265V17.971H256.149V19.0483ZM269.043 19.7942V11.1133H269.803V19.7942H269.043ZM263.967 11.9696V16.8867C265.293 16.8833 266.657 16.7797 268.118 16.4724L268.222 17.1285C266.681 17.4461 265.307 17.5566 263.919 17.5566H263.215V11.9696H263.967ZM278.16 14.5456H279.611V15.1878H278.16V19.808H277.394V11.1133H278.16V14.5456ZM272.587 12.5912V16.9834C274.158 16.98 275.27 16.9178 276.558 16.6796L276.655 17.3425C275.294 17.5843 274.155 17.6326 272.504 17.6326H271.821V11.9627H275.875V12.5912H272.587Z" fill="white"/>
<rect x="0.5" y="0.5" width="303" height="29" rx="14.5" stroke="white"/>
</svg>
