<svg width="328" height="49" viewBox="0 0 328 49" fill="none" xmlns="http://www.w3.org/2000/svg">
<rect width="328" height="48" rx="16" fill="#FEE500"/>
<path d="M132.315 23.0387H134.569V24.0552H132.315V31.2597H131.088V17.3812H132.315V23.0387ZM122.47 18.8287H128.768C128.757 22.8398 127.387 26.5083 122.392 28.9613L121.707 28.0331C124.315 26.7624 125.878 25.1547 126.729 23.2873L121.961 23.7348L121.762 22.663L127.105 22.2928C127.348 21.5138 127.486 20.6961 127.547 19.8453H122.47V18.8287ZM145.903 23.0387H148.157V24.0552H145.903V31.2597H144.677V17.3812H145.903V23.0387ZM136.058 18.8287H142.356C142.345 22.8398 140.975 26.5083 135.98 28.9613L135.295 28.0331C137.903 26.7624 139.467 25.1547 140.317 23.2873L135.549 23.7348L135.351 22.663L140.693 22.2928C140.936 21.5138 141.074 20.6961 141.135 19.8453H136.058V18.8287ZM155.668 25.5359V28.453H161.458V29.4807H148.74V28.453H154.452V25.5359C151.834 25.3536 149.988 23.989 149.988 21.9227C149.988 19.7348 152.121 18.2983 155.06 18.2873C158.022 18.2983 160.143 19.7348 160.143 21.9227C160.143 23.989 158.309 25.3591 155.668 25.5359ZM151.171 21.9227C151.171 23.5249 152.817 24.5635 155.06 24.5746C157.314 24.5635 158.961 23.5249 158.961 21.9227C158.961 20.3536 157.314 19.2928 155.06 19.3039C152.817 19.2928 151.171 20.3536 151.171 21.9227ZM173.032 25.8895V28.5083H178.822V29.547H166.104V28.5083H171.816V25.8895H167.695V21.6022H176.004V19.4254H167.662V18.4088H177.22V22.6077H168.91V24.8729H177.54V25.8895H173.032ZM189.438 20.2541V19.8785H181.073V18.8619H190.642V20.2541C190.642 22 190.642 23.9779 190.123 26.9945L188.874 26.8729C189.438 24.0331 189.438 21.9558 189.438 20.2541ZM179.692 29.2265V28.1989H192.355V29.2265H179.692ZM203.523 17.3923H204.749V27.547H203.523V17.3923ZM197.247 25.1823C195.169 25.1934 193.6 23.7901 193.6 21.768C193.6 19.768 195.169 18.3646 197.247 18.3646C199.324 18.3646 200.882 19.768 200.882 21.768C200.882 23.7901 199.324 25.1934 197.247 25.1823ZM194.805 21.768C194.794 23.1492 195.843 24.1105 197.247 24.1105C198.628 24.1105 199.689 23.1492 199.689 21.768C199.689 20.4088 198.628 19.4365 197.247 19.4365C195.843 19.4365 194.794 20.4088 194.805 21.768ZM197.004 26.5083V29.9448H205.18V30.9613H195.777V26.5083H197.004Z" fill="black" fill-opacity="0.85"/>
<path fill-rule="evenodd" clip-rule="evenodd" d="M23 17.4803C19.1338 17.4803 16 20.0575 16 23.236C16 25.2127 17.2121 26.9554 19.0579 27.9919L18.2813 31.0116C18.2126 31.2784 18.4993 31.4911 18.7195 31.3365L22.1237 28.945C22.411 28.9745 22.703 28.9917 23 28.9917C26.8659 28.9917 30 26.4146 30 23.236C30 20.0575 26.8659 17.4803 23 17.4803Z" fill="black"/>
</svg>
