<svg width="328" height="49" viewBox="0 0 328 49" fill="none" xmlns="http://www.w3.org/2000/svg">
<rect width="328" height="48" rx="16" fill="#FEE500"/>
<path d="M140.731 22.5014H142.239V23.7279H140.731V29.0566H139.235V18.4075H140.731V22.5014ZM132.945 19.4351H137.876C137.876 22.7251 137.076 25.4641 133.086 27.4613L132.273 26.3384C134.051 25.4558 135.108 24.4613 135.713 23.2804L132.555 23.5746L132.381 22.2942L136.16 22.0704C136.276 21.6188 136.347 21.1381 136.388 20.6326H132.945V19.4351ZM150.922 22.5014H152.43V23.7279H150.922V29.0566H149.426V18.4075H150.922V22.5014ZM143.136 19.4351H148.067C148.067 22.7251 147.267 25.4641 143.277 27.4613L142.465 26.3384C144.242 25.4558 145.299 24.4613 145.904 23.2804L142.746 23.5746L142.572 22.2942L146.351 22.0704C146.467 21.6188 146.538 21.1381 146.579 20.6326H143.136V19.4351ZM158.295 24.7887V26.6119H162.455V27.8301H152.701V26.6119H156.816V24.7845C154.91 24.5691 153.555 23.4876 153.559 21.8798C153.555 20.1271 155.27 18.9627 157.558 18.9627C159.857 18.9627 161.577 20.1271 161.577 21.8798C161.577 23.4917 160.214 24.5732 158.295 24.7887ZM155.03 21.8798C155.03 23.0069 156.07 23.6367 157.558 23.6409C159.062 23.6367 160.098 23.0069 160.102 21.8798C160.098 20.8149 159.062 20.1561 157.558 20.1561C156.07 20.1561 155.03 20.8149 155.03 21.8798ZM171.072 25.0539V26.6657H175.232V27.8881H165.478V26.6657H169.593V25.0539H166.601V21.4655H172.63V20.3052H166.584V19.1036H174.109V22.6381H168.093V23.8398H174.358V25.0539H171.072ZM182.705 20.6699V20.5953H176.676V19.3936H184.197V20.6699C184.193 22.1367 184.193 23.587 183.815 25.7956L182.299 25.6754C182.701 23.616 182.701 22.0953 182.705 20.6699ZM175.669 27.6768V26.4586H185.398V27.6768H175.669ZM193.286 18.424H194.786V26.0898H193.286V18.424ZM191.852 21.7887C191.852 23.3757 190.576 24.4945 188.939 24.4945C187.302 24.4945 186.018 23.3757 186.022 21.7887C186.018 20.2265 187.302 19.0994 188.939 19.0994C190.576 19.0994 191.852 20.2265 191.852 21.7887ZM187.484 21.7887C187.476 22.6796 188.106 23.1934 188.939 23.1934C189.747 23.1934 190.377 22.6796 190.377 21.7887C190.377 20.9227 189.747 20.4006 188.939 20.4006C188.106 20.4006 187.476 20.9227 187.484 21.7887ZM189.15 25.3149V27.6892H195.067V28.895H187.638V25.3149H189.15Z" fill="black" fill-opacity="0.85"/>
<path fill-rule="evenodd" clip-rule="evenodd" d="M23 17.4803C19.1338 17.4803 16 20.0575 16 23.236C16 25.2127 17.2121 26.9554 19.0579 27.9919L18.2813 31.0116C18.2126 31.2784 18.4993 31.4911 18.7195 31.3365L22.1237 28.945C22.411 28.9745 22.703 28.9917 23 28.9917C26.8659 28.9917 30 26.4146 30 23.236C30 20.0575 26.8659 17.4803 23 17.4803Z" fill="black"/>
</svg>
