<svg width="329" height="48" viewBox="0 0 329 48" fill="none" xmlns="http://www.w3.org/2000/svg">
<rect width="328.41" height="48" rx="16" fill="#03C75A"/>
<path d="M25.493 24.4923L20.3023 17H16V31H20.507V23.5065L25.6977 31H30V17H25.493V24.4923Z" fill="white"/>
<path d="M132.282 31.2707V17.3812H133.453V31.2707H132.282ZM126.138 22.0552H129.309V17.7238H130.481V30.5635H129.309V23.0718H126.138V22.0552ZM123.475 18.884V26.674C124.972 26.663 126.398 26.5691 128.061 26.221L128.238 27.2818C126.381 27.6685 124.823 27.7459 123.133 27.7459H122.249V18.884H123.475ZM145.373 17.3812H146.599V31.2928H145.373V17.3812ZM139.218 18.453C141.273 18.4641 142.765 20.3425 142.765 23.2928C142.765 26.2541 141.273 28.1326 139.218 28.1326C137.141 28.1326 135.671 26.2541 135.671 23.2928C135.671 20.3425 137.141 18.4641 139.218 18.453ZM139.218 19.547C137.826 19.558 136.853 21.0387 136.853 23.2928C136.853 25.558 137.826 27.0387 139.218 27.0387C140.61 27.0387 141.572 25.558 141.572 23.2928C141.572 21.0387 140.61 19.558 139.218 19.547ZM159.038 22.5525V17.3812H160.254V31.2928H159.038V23.5691H155.701V27.779H149.303V18.4641H150.541V22.0884H154.508V18.4641H155.701V22.5525H159.038ZM150.541 26.7624H154.508V23.0718H150.541V26.7624ZM173.032 25.8895V28.5083H178.822V29.547H166.104V28.5083H171.816V25.8895H167.695V21.6022H176.004V19.4254H167.662V18.4088H177.22V22.6077H168.91V24.8729H177.54V25.8895H173.032ZM189.438 20.2541V19.8785H181.073V18.8619H190.642V20.2541C190.642 22 190.642 23.9779 190.123 26.9945L188.874 26.8729C189.438 24.0331 189.438 21.9558 189.438 20.2541ZM179.692 29.2265V28.1989H192.355V29.2265H179.692ZM203.523 17.3923H204.749V27.547H203.523V17.3923ZM197.247 25.1823C195.169 25.1934 193.6 23.7901 193.6 21.768C193.6 19.768 195.169 18.3646 197.247 18.3646C199.324 18.3646 200.882 19.768 200.882 21.768C200.882 23.7901 199.324 25.1934 197.247 25.1823ZM194.805 21.768C194.794 23.1492 195.843 24.1105 197.247 24.1105C198.628 24.1105 199.689 23.1492 199.689 21.768C199.689 20.4088 198.628 19.4365 197.247 19.4365C195.843 19.4365 194.794 20.4088 194.805 21.768ZM197.004 26.5083V29.9448H205.18V30.9613H195.777V26.5083H197.004Z" fill="white"/>
</svg>
