<svg width="329" height="48" viewBox="0 0 329 48" fill="none" xmlns="http://www.w3.org/2000/svg">
<rect width="328.41" height="48" rx="16" fill="#03C75A"/>
<path d="M25.493 24.4923L20.3023 17H16V31H20.507V23.5065L25.6977 31H30V17H25.493V24.4923Z" fill="white"/>
<path d="M140.151 29.0815V18.4075H141.559V29.0815H140.151ZM135.733 21.7928H137.863V18.6105H139.276V28.605H137.863V22.9903H135.733V21.7928ZM134.225 19.4268V25.2445C135.207 25.2238 136.102 25.1533 137.109 24.9378L137.312 26.1892C135.999 26.4793 134.847 26.529 133.471 26.5249H132.725V19.4268H134.225ZM149.923 18.4075H151.436V29.1064H149.923V18.4075ZM145.643 19.1616C147.255 19.1616 148.448 20.6367 148.452 22.9572C148.448 25.3025 147.255 26.7693 145.643 26.7693C144.01 26.7693 142.817 25.3025 142.821 22.9572C142.817 20.6367 144.01 19.1616 145.643 19.1616ZM145.643 20.5124C144.814 20.5124 144.259 21.3785 144.267 22.9572C144.259 24.5525 144.814 25.4144 145.643 25.4144C146.455 25.4144 147.006 24.5525 147.006 22.9572C147.006 21.3785 146.455 20.5124 145.643 20.5124ZM160.218 22.1699V18.4075H161.697V29.1064H160.218V23.384H158.237V26.5704H153.091V19.2362H154.587V21.8218H156.774V19.2362H158.237V22.1699H160.218ZM154.587 25.3729H156.774V22.9903H154.587V25.3729ZM171.072 25.0539V26.6657H175.232V27.8881H165.478V26.6657H169.593V25.0539H166.601V21.4655H172.63V20.3052H166.584V19.1036H174.109V22.6381H168.093V23.8398H174.358V25.0539H171.072ZM182.705 20.6699V20.5953H176.676V19.3936H184.197V20.6699C184.193 22.1367 184.193 23.587 183.815 25.7956L182.299 25.6754C182.701 23.616 182.701 22.0953 182.705 20.6699ZM175.669 27.6768V26.4586H185.398V27.6768H175.669ZM193.286 18.424H194.786V26.0898H193.286V18.424ZM191.852 21.7887C191.852 23.3757 190.576 24.4945 188.939 24.4945C187.302 24.4945 186.018 23.3757 186.022 21.7887C186.018 20.2265 187.302 19.0994 188.939 19.0994C190.576 19.0994 191.852 20.2265 191.852 21.7887ZM187.484 21.7887C187.476 22.6796 188.106 23.1934 188.939 23.1934C189.747 23.1934 190.377 22.6796 190.377 21.7887C190.377 20.9227 189.747 20.4006 188.939 20.4006C188.106 20.4006 187.476 20.9227 187.484 21.7887ZM189.15 25.3149V27.6892H195.067V28.895H187.638V25.3149H189.15Z" fill="white"/>
</svg>
