<svg width="69" height="24" viewBox="0 0 69 24" fill="none" xmlns="http://www.w3.org/2000/svg">
<path d="M9.59775 17.6169C9.6593 17.1854 9.65417 16.8052 9.58236 16.4764C9.51056 16.1476 9.37207 15.8599 9.16691 15.6133C8.97201 15.3564 8.72069 15.1252 8.41295 14.9197C8.11547 14.7142 7.78721 14.5189 7.42818 14.334C6.67935 13.9744 5.98181 13.5788 5.33555 13.1472C4.6893 12.7054 4.11998 12.207 3.6276 11.6521C3.13522 11.0973 2.76593 10.4654 2.51974 9.75636C2.27354 9.04737 2.17609 8.24076 2.22738 7.33654C2.29919 6.32956 2.55564 5.42534 2.99673 4.62387C3.44808 3.81212 4.03792 3.12882 4.76624 2.57395C5.50481 2.01909 6.32032 1.60294 7.21277 1.32551C8.11547 1.0378 9.04895 0.904223 10.0132 0.924774C11.3775 0.955599 12.5213 1.27927 13.4445 1.89579C14.3677 2.5123 15.055 3.3446 15.5064 4.39267C15.968 5.43048 16.1783 6.59158 16.1372 7.87599H11.4134C11.4237 7.4136 11.398 6.95121 11.3365 6.48883C11.2852 6.01617 11.1262 5.62571 10.8595 5.31745C10.603 4.99892 10.1825 4.83451 9.59775 4.82424C9.10537 4.81396 8.6694 4.92699 8.28986 5.16332C7.92057 5.39965 7.61796 5.71305 7.38202 6.10351C7.14609 6.48369 6.99222 6.90498 6.92041 7.36736C6.86912 7.74755 6.90503 8.09177 7.02812 8.40003C7.16148 8.69801 7.34612 8.9703 7.58205 9.21691C7.81799 9.45324 8.0847 9.66902 8.38218 9.86425C8.67966 10.0595 8.97714 10.2239 9.27462 10.3575C10.0645 10.7376 10.7825 11.1538 11.4288 11.6059C12.0751 12.058 12.6239 12.5718 13.0752 13.1472C13.5368 13.7123 13.8753 14.3597 14.0907 15.0892C14.3062 15.8188 14.3831 16.6511 14.3216 17.5861C14.2395 18.6239 13.9882 19.5435 13.5676 20.345C13.1573 21.1465 12.6085 21.8247 11.9212 22.3795C11.2442 22.9241 10.4646 23.3351 9.58236 23.6126C8.71043 23.89 7.77183 24.0184 6.76654 23.9979C5.66894 23.967 4.6893 23.7667 3.82763 23.3968C2.97622 23.0166 2.25816 22.4925 1.67345 21.8247C1.099 21.1465 0.663039 20.3553 0.365557 19.4511C0.0783338 18.5468 -0.0396331 17.5553 0.0116568 16.4764L4.78162 16.4918C4.75085 16.9645 4.74572 17.4217 4.76624 17.8635C4.79701 18.2951 4.88933 18.6804 5.0432 19.0195C5.19707 19.3483 5.43813 19.6103 5.76639 19.8056C6.09465 20.0008 6.54087 20.0984 7.10506 20.0984C7.6077 20.0984 8.02828 19.9905 8.36679 19.7747C8.71556 19.5487 8.9874 19.2507 9.1823 18.8808C9.38746 18.5006 9.52594 18.0793 9.59775 17.6169Z" fill="white"/>
<path d="M16.7527 15.9986L16.9066 14.7039C17.0399 13.6353 17.2964 12.618 17.6759 11.6521C18.0555 10.6863 18.5581 9.82315 19.1838 9.06278C19.8198 8.29214 20.5892 7.69617 21.4919 7.27489C22.3946 6.8536 23.4358 6.65837 24.6154 6.6892C25.7438 6.70975 26.6824 6.95121 27.4313 7.4136C28.1904 7.86571 28.7853 8.47195 29.2162 9.23232C29.6573 9.99269 29.9496 10.8455 30.0932 11.7909C30.2368 12.7259 30.2573 13.6918 30.1548 14.6885L30.0009 16.014C29.8675 17.0621 29.6111 18.0742 29.2315 19.0503C28.8623 20.0162 28.3545 20.8793 27.7082 21.6397C27.0722 22.3898 26.308 22.9755 25.4156 23.3968C24.5231 23.8181 23.4871 24.0133 22.3074 23.9825C21.179 23.9619 20.2353 23.7256 19.4762 23.2735C18.7274 22.8111 18.1324 22.2048 17.6913 21.4547C17.2605 20.6944 16.9681 19.8467 16.8142 18.9116C16.6706 17.9663 16.6501 16.9953 16.7527 15.9986ZM21.5073 14.6885L21.3534 16.0294C21.3329 16.3377 21.297 16.7179 21.2457 17.17C21.2047 17.6221 21.2047 18.0793 21.2457 18.5417C21.2867 19.0041 21.415 19.3946 21.6304 19.7131C21.8561 20.0213 22.21 20.1858 22.6921 20.2063C23.246 20.2474 23.6922 20.1292 24.0307 19.8518C24.3795 19.5744 24.6462 19.2147 24.8309 18.7729C25.0258 18.3208 25.1643 17.8481 25.2463 17.3549C25.3284 16.8617 25.3951 16.4045 25.4463 15.9832L25.6002 14.6577C25.6207 14.3597 25.6515 13.9795 25.6925 13.5171C25.7336 13.0547 25.7284 12.5975 25.6772 12.1454C25.6361 11.6932 25.5028 11.3079 25.2771 10.9894C25.0617 10.6709 24.7129 10.4962 24.2308 10.4654C23.6974 10.4345 23.2614 10.563 22.9229 10.8507C22.5946 11.1281 22.333 11.4929 22.1381 11.945C21.9432 12.3971 21.7996 12.8698 21.7073 13.363C21.615 13.8562 21.5483 14.298 21.5073 14.6885Z" fill="white"/>
<path d="M31.8935 15.9986L32.0474 14.7039C32.1807 13.6353 32.4372 12.618 32.8167 11.6521C33.1963 10.6863 33.6989 9.82315 34.3246 9.06278C34.9606 8.29214 35.73 7.69617 36.6327 7.27489C37.5354 6.8536 38.5766 6.65837 39.7562 6.6892C40.8846 6.70975 41.8232 6.95121 42.5721 7.4136C43.3312 7.86571 43.9261 8.47195 44.3569 9.23232C44.798 9.99269 45.0904 10.8455 45.234 11.7909C45.3776 12.7259 45.3981 13.6918 45.2956 14.6885L45.1417 16.014C45.0083 17.0621 44.7519 18.0742 44.3723 19.0503C44.0031 20.0162 43.4953 20.8793 42.849 21.6397C42.213 22.3898 41.4488 22.9755 40.5564 23.3968C39.6639 23.8181 38.6279 24.0133 37.4482 23.9825C36.3198 23.9619 35.3761 23.7256 34.617 23.2735C33.8682 22.8111 33.2732 22.2048 32.8321 21.4547C32.4013 20.6944 32.1089 19.8467 31.955 18.9116C31.8114 17.9663 31.7909 16.9953 31.8935 15.9986ZM36.6481 14.6885L36.4942 16.0294C36.4737 16.3377 36.4378 16.7179 36.3865 17.17C36.3455 17.6221 36.3455 18.0793 36.3865 18.5417C36.4275 19.0041 36.5558 19.3946 36.7712 19.7131C36.9968 20.0213 37.3507 20.1858 37.8329 20.2063C38.3868 20.2474 38.833 20.1292 39.1715 19.8518C39.5203 19.5744 39.787 19.2147 39.9717 18.7729C40.1666 18.3208 40.305 17.8481 40.3871 17.3549C40.4692 16.8617 40.5359 16.4045 40.5871 15.9832L40.741 14.6577C40.7615 14.3597 40.7923 13.9795 40.8333 13.5171C40.8744 13.0547 40.8692 12.5975 40.8179 12.1454C40.7769 11.6932 40.6436 11.3079 40.4179 10.9894C40.2025 10.6709 39.8537 10.4962 39.3716 10.4654C38.8382 10.4345 38.4022 10.563 38.0637 10.8507C37.7354 11.1281 37.4738 11.4929 37.2789 11.945C37.084 12.3971 36.9404 12.8698 36.8481 13.363C36.7558 13.8562 36.6891 14.298 36.6481 14.6885Z" fill="white"/>
<path d="M55.0355 0L50.9426 23.6742H46.3573L50.4656 0H55.0355Z" fill="white"/>
<path d="M54.8816 15.9986L55.0355 14.7039C55.1689 13.6353 55.4253 12.618 55.8049 11.6521C56.1844 10.6863 56.6871 9.82315 57.3128 9.06278C57.9488 8.29214 58.7181 7.69617 59.6208 7.27489C60.5235 6.8536 61.5647 6.65837 62.7444 6.6892C63.8728 6.70975 64.8114 6.95121 65.5602 7.4136C66.3193 7.86571 66.9143 8.47195 67.3451 9.23232C67.7862 9.99269 68.0786 10.8455 68.2222 11.7909C68.3658 12.7259 68.3863 13.6918 68.2837 14.6885L68.1298 16.014C67.9965 17.0621 67.74 18.0742 67.3605 19.0503C66.9912 20.0162 66.4834 20.8793 65.8372 21.6397C65.2012 22.3898 64.437 22.9755 63.5445 23.3968C62.6521 23.8181 61.616 24.0133 60.4364 23.9825C59.308 23.9619 58.3642 23.7256 57.6051 23.2735C56.8563 22.8111 56.2613 22.2048 55.8203 21.4547C55.3894 20.6944 55.0971 19.8467 54.9432 18.9116C54.7996 17.9663 54.7791 16.9953 54.8816 15.9986ZM59.6362 14.6885L59.4824 16.0294C59.4618 16.3377 59.4259 16.7179 59.3746 17.17C59.3336 17.6221 59.3336 18.0793 59.3746 18.5417C59.4157 19.0041 59.5439 19.3946 59.7593 19.7131C59.985 20.0213 60.3389 20.1858 60.821 20.2063C61.375 20.2474 61.8212 20.1292 62.1597 19.8518C62.5085 19.5744 62.7752 19.2147 62.9598 18.7729C63.1547 18.3208 63.2932 17.8481 63.3753 17.3549C63.4573 16.8617 63.524 16.4045 63.5753 15.9832L63.7292 14.6577C63.7497 14.3597 63.7805 13.9795 63.8215 13.5171C63.8625 13.0547 63.8574 12.5975 63.8061 12.1454C63.7651 11.6932 63.6317 11.3079 63.406 10.9894C63.1906 10.6709 62.8419 10.4962 62.3597 10.4654C61.8263 10.4345 61.3903 10.563 61.0518 10.8507C60.7236 11.1281 60.462 11.4929 60.2671 11.945C60.0722 12.3971 59.9286 12.8698 59.8363 13.363C59.7439 13.8562 59.6773 14.298 59.6362 14.6885Z" fill="white"/>
</svg>
