<svg width="328" height="50" viewBox="0 0 328 50" fill="none" xmlns="http://www.w3.org/2000/svg">
<g clip-path="url(#clip0_1496_10219)">
<rect width="328" height="50" rx="8" fill="#F2F4F7"/>
<path d="M20.0625 19.5L17.25 16.6875L17.6919 16.2456L20.0625 18.6159L24.3081 14.3706L24.75 14.8125L20.0625 19.5Z" fill="#475467"/>
<path d="M36.7541 13.1202H37.5207V19.4876H36.7541V13.1202ZM33.0421 15.8999C32.6657 16.9669 31.8785 17.8198 30.8633 18.2307L30.442 17.6298C31.7541 17.1188 32.645 15.8481 32.645 14.4738V13.6036H33.4254V14.4738C33.4185 15.7997 34.3232 16.9876 35.6146 17.4572L35.2141 18.0718C34.2093 17.6816 33.4254 16.9012 33.0421 15.8999ZM32.6796 18.9006V20.9655H37.7901V21.6008H31.913V18.9006H32.6796ZM45.3395 14.8536V14.6257H39.9873V13.9903H46.1061V14.8536C46.0992 15.924 46.0992 17.1119 45.7815 18.8591L45.008 18.7693C45.3326 17.1119 45.3326 15.8964 45.3395 14.8536ZM43.0053 16.8218V19.9227H47.0592V20.5649H39.1448V19.9227H42.2456V16.8218H43.0053ZM57.2615 16.6492V13.1133H58.0074V21.7942H57.2615V17.2983H56.0046V21.3384H55.2795V13.3066H56.0046V16.6492H57.2615ZM51.7988 14.1699V18.8591C52.6551 18.8557 53.584 18.7935 54.6441 18.5829L54.7339 19.2597C53.5253 19.4807 52.5308 19.5428 51.5778 19.5428H51.0322V14.1699H51.7988ZM65.3358 16.1761V17.4088H67.3041V18.0373H59.3897V17.4088H61.351V16.183C60.657 15.9137 60.2668 15.4717 60.2668 14.8881C60.2668 13.866 61.4408 13.279 63.34 13.279C65.2323 13.279 66.4063 13.866 66.4063 14.8881C66.4063 15.4682 66.0195 15.9102 65.3358 16.1761ZM61.061 14.8881C61.0541 15.5235 61.9242 15.8895 63.34 15.8895C64.7488 15.8895 65.6259 15.5235 65.6259 14.8881C65.6259 14.2597 64.7488 13.8798 63.34 13.8798C61.9242 13.8798 61.0541 14.2597 61.061 14.8881ZM62.1176 16.3867V17.4088H64.5762V16.3833C64.2102 16.4489 63.7958 16.4834 63.34 16.4834C62.8911 16.4834 62.4802 16.4523 62.1176 16.3867ZM63.34 18.7072C65.2046 18.7003 66.3234 19.2459 66.3303 20.2334C66.3234 21.2279 65.2046 21.7735 63.34 21.7735C61.4615 21.7735 60.3427 21.2279 60.3427 20.2334C60.3427 19.2459 61.4615 18.7003 63.34 18.7072ZM63.34 21.1727C64.7212 21.1796 65.5568 20.8273 65.5637 20.2334C65.5568 19.6464 64.7212 19.3011 63.34 19.2942C61.9519 19.3011 61.1162 19.6464 61.1231 20.2334C61.1162 20.8273 61.9519 21.1796 63.34 21.1727ZM77.2716 15.2196V13.1133H78.0313V17.8301H77.2716V15.8619H75.5106V15.2196H77.2716ZM73.4871 15.7963C73.1107 16.7942 72.3096 17.5919 71.2771 17.9682L70.8766 17.3674C72.1611 16.9047 73.0865 15.7583 73.0865 14.5221V14.2735H71.1252V13.6381H75.8006V14.2735H73.86V14.5221C73.86 15.6409 74.7302 16.732 76.0009 17.1671L75.6003 17.768C74.6197 17.4088 73.8635 16.6872 73.4871 15.7963ZM73.2108 19.3287H77.2716V18.2445H78.0313V21.6768H72.4443V18.2445H73.2108V19.3287ZM73.2108 21.0483H77.2716V19.9434H73.2108V21.0483ZM83.5987 15.0055C83.0462 16.0794 81.7099 16.8218 80.3598 17.0497L80.0421 16.4213C81.6098 16.2003 83.1982 15.1644 83.1982 13.9213V13.424H83.9924V13.9213C83.9924 15.1436 85.5877 16.2003 87.1553 16.4213L86.8446 17.0497C85.491 16.8218 84.1547 16.0725 83.5987 15.0055ZM79.6346 18.0028H87.549V18.645H83.9509V21.7942H83.1982V18.645H79.6346V18.0028ZM95.4171 14.1077H98.5386V14.7431H91.5013V14.1077H94.6574V13.0649H95.4171V14.1077ZM95.0373 18.134C93.2624 18.1271 92.1989 17.6091 92.2058 16.6906C92.1989 15.7583 93.2624 15.2403 95.0373 15.2403C96.8052 15.2403 97.8687 15.7583 97.8687 16.6906C97.8687 17.6091 96.8052 18.1271 95.0373 18.134ZM95.0373 15.8273C93.7458 15.8273 92.9931 16.145 93 16.6906C92.9931 17.2293 93.7458 17.547 95.0373 17.5401C96.3218 17.547 97.0745 17.2293 97.0814 16.6906C97.0745 16.145 96.3218 15.8273 95.0373 15.8273ZM91.087 18.7348H99.0359V19.3702H95.4171V21.808H94.6574V19.3702H91.087V18.7348ZM108.893 21.808V13.1133H109.659V21.808H108.893ZM103.223 17.9751L102.85 17.3881C104.135 17.0048 105.039 16.0587 105.06 14.8881H103.064V14.2528H105.074V13.1754H105.834V14.2528H107.871V14.8881H105.834C105.858 16.0104 106.783 16.922 108.064 17.2845L107.705 17.8923C106.662 17.578 105.844 16.9116 105.454 16.0311C105.077 16.9599 104.266 17.6575 103.223 17.9751ZM105.834 17.6851V19.2873C106.669 19.2459 107.522 19.1733 108.32 19.0525L108.382 19.6257C106.393 19.9848 104.259 19.9986 102.691 19.9986L102.588 19.3564C103.313 19.3529 104.173 19.3494 105.074 19.3184V17.6851H105.834ZM118.017 16.6008V13.1133H118.749V21.7942H118.017V17.2362H116.746V21.3384H116.035V13.3066H116.746V16.6008H118.017ZM112.416 14.8052V18.9903C113.614 18.9869 114.44 18.9385 115.4 18.7417L115.469 19.384C114.426 19.605 113.542 19.6395 112.209 19.6464H111.65V14.1768H114.902V14.8052H112.416ZM129.186 13.1133H129.953V17.5677H129.186V13.1133ZM127.494 15.3577C127.487 16.4903 126.541 17.2707 125.243 17.2707C123.931 17.2707 122.985 16.4903 122.985 15.3577C122.985 14.2251 123.931 13.4378 125.243 13.4309C126.541 13.4378 127.487 14.2251 127.494 15.3577ZM123.737 15.3577C123.73 16.1174 124.373 16.6423 125.243 16.6423C126.106 16.6423 126.748 16.1174 126.748 15.3577C126.748 14.605 126.106 14.0732 125.243 14.0801C124.373 14.0732 123.73 14.605 123.737 15.3577ZM125.077 20.0815V21.0552H130.264V21.6768H124.331V19.5014H129.193V18.6105H124.304V17.989H129.953V20.0815H125.077ZM132.343 17.3191L132.046 16.7113C133.552 16.4903 135.099 15.5028 135.106 14.3356V14.2804H132.323V13.6588H138.732V14.2804H135.962V14.3356C135.955 15.5028 137.502 16.4903 139.022 16.7113L138.732 17.3191C137.378 17.0877 136.059 16.366 135.531 15.3232C135.002 16.366 133.68 17.0877 132.343 17.3191ZM131.577 18.058H139.491V18.6934H135.893V21.7873H135.14V18.6934H131.577V18.058ZM146.771 13.1133H147.538V17.5677H146.771V13.1133ZM145.079 15.3577C145.072 16.4903 144.126 17.2707 142.828 17.2707C141.516 17.2707 140.57 16.4903 140.57 15.3577C140.57 14.2251 141.516 13.4378 142.828 13.4309C144.126 13.4378 145.072 14.2251 145.079 15.3577ZM141.322 15.3577C141.316 16.1174 141.958 16.6423 142.828 16.6423C143.691 16.6423 144.333 16.1174 144.333 15.3577C144.333 14.605 143.691 14.0732 142.828 14.0801C141.958 14.0732 141.316 14.605 141.322 15.3577ZM142.662 20.0815V21.0552H147.849V21.6768H141.916V19.5014H146.778V18.6105H141.889V17.989H147.538V20.0815H142.662ZM156.034 16.6975H157.353V17.3398H156.034V21.7942H155.267V13.1133H156.034V16.6975ZM151.793 14.0594C151.786 16.1243 151.324 18.1616 149.749 19.826L149.127 19.3909C150.443 18.0511 150.971 16.4316 151.065 14.7017H149.404V14.0594H151.793ZM152.069 14.0594H154.183C154.176 16.1174 153.872 18.5138 152.249 20.4061L151.621 19.9779C152.981 18.4413 153.388 16.511 153.461 14.7017H152.069V14.0594ZM164.343 21.7942V13.1133H165.109V21.7942H164.343ZM161.062 14.6464V15.779C161.062 17.25 162.133 18.7486 163.41 19.3011L162.982 19.9088C161.967 19.4461 161.093 18.4482 160.686 17.25C160.278 18.5207 159.401 19.6257 158.41 20.1229L157.955 19.5152C159.198 18.9213 160.282 17.2776 160.289 15.779V14.6464H158.238V14.0041H163.127V14.6464H161.062ZM173.34 15.5753C172.77 16.8218 171.385 17.7196 170.063 17.9959L169.718 17.3605C171.237 17.0981 172.929 15.8273 172.936 14.3702V13.7003H173.737V14.3702C173.737 15.8204 175.45 17.0981 176.969 17.3605L176.624 17.9959C175.301 17.7196 173.906 16.8253 173.34 15.5753ZM173.716 17.8992V20.0193H177.356V20.6547H169.407V20.0193H172.964V17.8992H173.716ZM184.173 17.6713V20.0331H186.148V20.6754H178.199V20.0331H180.168V17.692C179.429 17.3052 178.98 16.6802 178.98 15.8964C178.98 14.5497 180.299 13.6657 182.15 13.6588C184.007 13.6657 185.327 14.5497 185.327 15.8964C185.327 16.6699 184.891 17.2845 184.173 17.6713ZM179.719 15.8964C179.719 16.8633 180.727 17.5124 182.15 17.5124C183.565 17.5124 184.588 16.8633 184.588 15.8964C184.588 14.9227 183.565 14.2804 182.15 14.2873C180.727 14.2804 179.719 14.9227 179.719 15.8964ZM180.92 17.9751V20.0331H183.4V17.9717C183.023 18.0684 182.602 18.1202 182.15 18.1202C181.704 18.1202 181.293 18.0684 180.92 17.9751ZM193.401 13.1202H194.161V17.7956H193.401V13.1202ZM192.703 16.7044L192.745 17.2431C190.887 17.5262 188.795 17.5815 187.144 17.5815L187.04 16.9669C187.804 16.9634 188.653 16.953 189.52 16.9254V16.0069H187.842V13.4931H191.944V14.087H188.629V15.4061H192.04V16.0069H190.293V16.8943C191.115 16.8529 191.937 16.7942 192.703 16.7044ZM189.174 20.1989V21.0691H194.471V21.6975H188.415V19.6119H193.408V18.8039H188.401V18.1892H194.161V20.1989H189.174ZM202.408 15.0055C201.856 16.0794 200.52 16.8218 199.17 17.0497L198.852 16.4213C200.42 16.2003 202.008 15.1644 202.008 13.9213V13.424H202.802V13.9213C202.802 15.1436 204.397 16.2003 205.965 16.4213L205.654 17.0497C204.301 16.8218 202.964 16.0725 202.408 15.0055ZM198.444 18.0028H206.359V18.645H202.761V21.7942H202.008V18.645H198.444V18.0028ZM216.299 13.1202H217.065V18.0787H216.299V13.1202ZM212.376 17.6713C211.057 17.6713 210.097 16.8494 210.097 15.6547C210.097 14.4461 211.057 13.6243 212.376 13.6243C213.695 13.6243 214.648 14.4461 214.648 15.6547C214.648 16.8494 213.695 17.6713 212.376 17.6713ZM212.376 14.2804C211.485 14.2735 210.843 14.8467 210.85 15.6547C210.843 16.4627 211.485 17.029 212.376 17.0359C213.26 17.029 213.902 16.4627 213.902 15.6547C213.902 14.8467 213.26 14.2735 212.376 14.2804ZM216.091 18.4586V18.9351C216.085 19.8329 216.741 20.7238 217.859 21.1036L217.473 21.6699C216.606 21.366 215.998 20.7583 215.698 20.0297C215.429 20.7376 214.9 21.404 214.096 21.7459C213.25 21.4213 212.714 20.7859 212.455 20.0573C212.141 20.7583 211.544 21.3591 210.712 21.6699L210.325 21.1036C211.423 20.6961 212.086 19.7707 212.093 18.9351V18.4586H212.832V18.9351C212.832 19.7051 213.25 20.5235 214.071 20.9931C214.9 20.482 215.339 19.6084 215.339 18.9351V18.4586H216.091ZM222.65 14.6015C222.097 15.5787 220.768 16.2555 219.428 16.4558L219.138 15.8481C220.685 15.634 222.253 14.7224 222.253 13.6174V13.2099H223.04V13.6174C223.04 14.6878 224.622 15.6478 226.148 15.8481L225.865 16.4558C224.522 16.2555 223.199 15.5684 222.65 14.6015ZM218.689 17.7127V17.0704H226.604V17.7127H218.689ZM220.457 19.3356H224.794V18.3204H225.568V21.6768H219.698V18.3204H220.457V19.3356ZM220.457 21.0552H224.794V19.9434H220.457V21.0552ZM233.877 21.7942V13.1133H234.637V21.7942H233.877ZM228.801 13.9696V18.8867C230.127 18.8833 231.491 18.7797 232.952 18.4724L233.055 19.1285C231.515 19.4461 230.141 19.5566 228.753 19.5566H228.048V13.9696H228.801ZM242.994 16.5456H244.444V17.1878H242.994V21.808H242.228V13.1133H242.994V16.5456ZM237.421 14.5912V18.9834C238.992 18.98 240.104 18.9178 241.392 18.6796L241.489 19.3425C240.128 19.5843 238.989 19.6326 237.338 19.6326H236.654V13.9627H240.708V14.5912H237.421ZM245.986 21.0552C245.64 21.0552 245.35 20.7721 245.357 20.4268C245.35 20.0815 245.64 19.7983 245.986 19.7983C246.331 19.7983 246.614 20.0815 246.614 20.4268C246.614 20.7721 246.331 21.0552 245.986 21.0552ZM36.7541 29.1202H37.5207V35.4876H36.7541V29.1202ZM33.0421 31.8999C32.6657 32.9669 31.8785 33.8198 30.8633 34.2307L30.442 33.6298C31.7541 33.1188 32.645 31.8481 32.645 30.4738V29.6036H33.4254V30.4738C33.4185 31.7997 34.3232 32.9876 35.6146 33.4572L35.2141 34.0718C34.2093 33.6816 33.4254 32.9012 33.0421 31.8999ZM32.6796 34.9006V36.9655H37.7901V37.6008H31.913V34.9006H32.6796ZM45.3395 30.8536V30.6257H39.9873V29.9903H46.1061V30.8536C46.0992 31.924 46.0992 33.1119 45.7815 34.8591L45.008 34.7693C45.3326 33.1119 45.3326 31.8964 45.3395 30.8536ZM43.0053 32.8218V35.9227H47.0592V36.5649H39.1448V35.9227H42.2456V32.8218H43.0053ZM54.657 32.6423H56.0658V33.2914H54.657V37.7873H53.8904V29.1133H54.657V32.6423ZM48.4001 30.0456H52.4125C52.4056 32.5041 51.2523 34.7417 48.4208 36.1367L47.9926 35.5359C50.2371 34.4206 51.4595 32.7493 51.6321 30.6878H48.4001V30.0456ZM65.8193 31.2196V29.1133H66.5789V33.8301H65.8193V31.8619H64.0582V31.2196H65.8193ZM62.0347 31.7963C61.6584 32.7942 60.8573 33.5919 59.8248 33.9682L59.4242 33.3674C60.7088 32.9047 61.6342 31.7583 61.6342 30.5221V30.2735H59.6729V29.6381H64.3483V30.2735H62.4077V30.5221C62.4077 31.6409 63.2778 32.732 64.5486 33.1671L64.148 33.768C63.1673 33.4088 62.4111 32.6872 62.0347 31.7963ZM61.7585 35.3287H65.8193V34.2445H66.5789V37.6768H60.9919V34.2445H61.7585V35.3287ZM61.7585 37.0483H65.8193V35.9434H61.7585V37.0483ZM72.1464 31.0055C71.5939 32.0794 70.2576 32.8218 68.9074 33.0497L68.5897 32.4213C70.1574 32.2003 71.7458 31.1644 71.7458 29.9213V29.424H72.54V29.9213C72.54 31.1436 74.1353 32.2003 75.703 32.4213L75.3922 33.0497C74.0386 32.8218 72.7023 32.0725 72.1464 31.0055ZM68.1823 34.0028H76.0967V34.645H72.4986V37.7942H71.7458V34.645H68.1823V34.0028ZM83.363 29.1202H84.1296V35.6119H83.363V29.1202ZM82.6379 33.6229L82.6931 34.1892C80.8285 34.4448 78.7635 34.5 77.1268 34.5L77.0094 33.8715C77.7725 33.8681 78.6289 33.8577 79.5025 33.8301V32.587H77.8036V29.6796H81.9541V30.3149H78.5771V31.9586H82.0232V32.587H80.2691V33.799C81.0805 33.761 81.8885 33.7058 82.6379 33.6229ZM79.2608 35.163V36.9655H84.4196V37.6008H78.4942V35.163H79.2608ZM95.0709 34.1478V29.1202H95.8029V34.1478H95.0709ZM93.4065 31.8757H92.191V33.4917H88.8278V29.7417H92.191V31.2334H93.4065V29.2997H94.1385V34.0442H93.4065V31.8757ZM89.546 32.9047H91.4728V30.3494H89.546V32.9047ZM95.8029 37.6768H90.0709V34.576H95.8029V37.6768ZM95.0501 35.1837H90.8236V37.0483H95.0501V35.1837ZM103.656 32.3453V29.1133H104.416V37.808H103.656V32.9807H101.571V35.6119H97.572V29.7901H98.3455V32.0552H100.825V29.7901H101.571V32.3453H103.656ZM98.3455 34.9765H100.825V32.6699H98.3455V34.9765ZM107.849 31.7445H113.029V32.366H107.09V29.4309H107.849V31.7445ZM105.999 34.1685V33.547H113.947V34.1685H105.999ZM107.034 35.0525H107.794V36.9448H113.084V37.5801H107.034V35.0525ZM120.545 29.7762H122.672V30.3287H117.644V29.7762H119.778V29.0304H120.545V29.7762ZM124.24 29.1133V31.337H125.538V31.9931H124.24V34.2376H123.473V29.1133H124.24ZM122.934 33.1948L122.996 33.7058C121.125 34.0166 119.039 34.0304 117.513 34.0304L117.423 33.4572C118.117 33.4572 118.929 33.4572 119.778 33.433V32.8909C118.756 32.8115 118.114 32.4075 118.121 31.7445C118.114 31.0331 118.915 30.6188 120.151 30.6188C121.387 30.6188 122.182 31.0331 122.188 31.7445C122.182 32.4006 121.553 32.808 120.545 32.8909V33.4019C121.356 33.364 122.175 33.3018 122.934 33.1948ZM118.853 31.7445C118.846 32.1381 119.35 32.3867 120.151 32.3867C120.952 32.3867 121.456 32.1381 121.456 31.7445C121.456 31.3646 120.952 31.1367 120.151 31.1298C119.35 31.1367 118.846 31.3646 118.853 31.7445ZM124.24 36.3715H119.364V37.145H124.571V37.6975H118.604V35.8605H123.48V35.1768H118.583V34.6312H124.24V36.3715ZM130.587 32.3867V33.4019H134.179V34.0235H126.257V33.4019H129.842V32.3867H127.259V29.5207H133.191V30.1354H128.018V31.7652H133.246V32.3867H130.587ZM130.208 34.6588C132.072 34.6588 133.191 35.2251 133.198 36.2196C133.191 37.221 132.072 37.7804 130.208 37.7873C128.336 37.7804 127.21 37.221 127.21 36.2196C127.21 35.2251 128.336 34.6588 130.208 34.6588ZM130.208 37.1727C131.589 37.1796 132.424 36.8273 132.431 36.2196C132.424 35.6188 131.589 35.2597 130.208 35.2597C128.819 35.2597 127.984 35.6188 127.991 36.2196C127.984 36.8273 128.819 37.1796 130.208 37.1727ZM141.438 29.1133H142.205V37.808H141.438V29.1133ZM137.591 29.7831C138.876 29.7901 139.808 30.9641 139.808 32.808C139.808 34.6588 138.876 35.8329 137.591 35.8329C136.293 35.8329 135.374 34.6588 135.374 32.808C135.374 30.9641 136.293 29.7901 137.591 29.7831ZM137.591 30.4669C136.721 30.4738 136.113 31.3992 136.113 32.808C136.113 34.2238 136.721 35.1492 137.591 35.1492C138.461 35.1492 139.062 34.2238 139.062 32.808C139.062 31.3992 138.461 30.4738 137.591 30.4669ZM151.178 32.0138V31.3785H152.932V29.1133H153.698V34.2859H152.932V32.0138H151.178ZM149.151 31.9862C148.778 33.0014 147.973 33.8128 146.937 34.203L146.537 33.5953C147.828 33.1257 148.747 31.9517 148.747 30.7086V30.384H146.785V29.7486H151.461V30.384H149.52V30.7017C149.52 31.8343 150.39 32.9116 151.661 33.3467L151.26 33.9613C150.283 33.6091 149.527 32.8805 149.151 31.9862ZM150.819 34.5552C152.621 34.5552 153.726 35.1492 153.726 36.1713C153.726 37.1934 152.621 37.7804 150.819 37.7873C149.009 37.7804 147.904 37.1934 147.911 36.1713C147.904 35.1492 149.009 34.5552 150.819 34.5552ZM150.819 37.1727C152.144 37.1796 152.966 36.7997 152.966 36.1713C152.966 35.5359 152.144 35.1561 150.819 35.1561C149.486 35.1561 148.664 35.5359 148.671 36.1713C148.664 36.7997 149.486 37.1796 150.819 37.1727ZM161.683 37.7942V29.1133H162.449V37.7942H161.683ZM158.403 30.6464V31.779C158.403 33.25 159.473 34.7486 160.751 35.3011L160.322 35.9088C159.307 35.4461 158.434 34.4482 158.026 33.25C157.619 34.5207 156.742 35.6257 155.751 36.1229L155.295 35.5152C156.538 34.9213 157.622 33.2776 157.629 31.779V30.6464H155.578V30.0041H160.467V30.6464H158.403ZM170.482 34.1064V29.1202H171.256V34.1064H170.482ZM169.764 32.9876L169.806 33.5401C167.906 33.8646 165.8 33.8923 164.232 33.8992L164.115 33.2638C164.854 33.2638 165.714 33.2604 166.608 33.2293V32.2901H164.902V29.5483H169.025V30.1837H165.676V31.6754H169.108V32.2901H167.375V33.1982C168.186 33.1568 169.001 33.0912 169.764 32.9876ZM166.297 35.4254H170.503V34.5H171.256V37.6768H165.531V34.5H166.297V35.4254ZM166.297 37.0483H170.503V36.0262H166.297V37.0483ZM179.275 37.7942V29.1133H180.035V37.7942H179.275ZM174.199 29.9696V34.8867C175.525 34.8833 176.889 34.7797 178.35 34.4724L178.453 35.1285C176.913 35.4461 175.539 35.5566 174.151 35.5566H173.446V29.9696H174.199ZM188.392 32.5456H189.842V33.1878H188.392V37.808H187.626V29.1133H188.392V32.5456ZM182.819 30.5912V34.9834C184.39 34.98 185.502 34.9178 186.79 34.6796L186.887 35.3425C185.526 35.5843 184.387 35.6326 182.736 35.6326H182.052V29.9627H186.106V30.5912H182.819ZM191.384 37.0552C191.038 37.0552 190.748 36.7721 190.755 36.4268C190.748 36.0815 191.038 35.7983 191.384 35.7983C191.729 35.7983 192.012 36.0815 192.012 36.4268C192.012 36.7721 191.729 37.0552 191.384 37.0552Z" fill="#475467"/>
</g>
<defs>
<clipPath id="clip0_1496_10219">
<rect width="328" height="50" rx="8" fill="white"/>
</clipPath>
</defs>
</svg>
