<svg width="328" height="48" viewBox="0 0 328 48" fill="none" xmlns="http://www.w3.org/2000/svg">
<path d="M151.244 18.424H152.744V26.2099H151.244V18.424ZM147.134 22.3522C146.657 23.4503 145.804 24.3287 144.557 24.7555L143.778 23.5746C145.572 22.9738 146.347 21.4903 146.351 20.0359V19.0083H147.901V20.0359C147.892 21.453 148.651 22.8329 150.403 23.3923L149.641 24.5691C148.435 24.1671 147.606 23.3715 147.134 22.3522ZM147.109 25.4517V27.6892H153.026V28.895H145.597V25.4517H147.109ZM162.368 25.4517L160.86 25.2942C161.266 23.2762 161.286 21.7762 161.295 20.5249H155.013V19.3356H162.795V20.3467C162.791 21.6809 162.791 23.1809 162.368 25.4517ZM158.974 22.8909V26.558H163.739V27.7721H154.01V26.558H157.491V22.8909H158.974ZM172.613 22.5884H174.187V23.8191H172.613V29.0815H171.134V18.4075H172.613V22.5884ZM166.559 18.5773H168.051V20.0028H170.413V21.2003H164.143V20.0028H166.559V18.5773ZM167.305 21.797C168.859 21.797 170.023 22.8536 170.027 24.3412C170.023 25.8329 168.859 26.8812 167.305 26.8854C165.73 26.8812 164.57 25.8329 164.574 24.3412C164.57 22.8536 165.73 21.797 167.305 21.797ZM167.305 25.6588C168.051 25.663 168.589 25.1699 168.598 24.3412C168.589 23.5249 168.051 23.0193 167.305 23.011C166.551 23.0193 166.004 23.5249 166.008 24.3412C166.004 25.1699 166.551 25.663 167.305 25.6588ZM181.838 29.0815V18.4075H183.351V29.0815H181.838ZM174.997 19.5304H180.156C180.152 22.7624 179.017 25.4517 175.204 27.25L174.425 26.0608C177.177 24.7555 178.391 23.0732 178.631 20.703H174.997V19.5304Z" fill="#F63D68"/>
<rect x="0.75" y="0.75" width="326.5" height="46.5" rx="11.25" stroke="#F63D68" stroke-width="1.5"/>
</svg>
