<svg width="328" height="34" viewBox="0 0 328 34" fill="none" xmlns="http://www.w3.org/2000/svg">
<g clip-path="url(#clip0_1401_9335)">
<rect width="328" height="34" rx="8" fill="#F2F4F7"/>
<path d="M20.0625 19.5L17.25 16.6875L17.6919 16.2456L20.0625 18.6159L24.3081 14.3706L24.75 14.8125L20.0625 19.5Z" fill="#475467"/>
<path d="M35.0276 16.0138V15.3785H36.7818V13.1133H37.5483V18.2859H36.7818V16.0138H35.0276ZM33.0007 15.9862C32.6278 17.0014 31.8232 17.8128 30.7873 18.203L30.3867 17.5953C31.6782 17.1257 32.5967 15.9517 32.5967 14.7086V14.384H30.6354V13.7486H35.3108V14.384H33.3702V14.7017C33.3702 15.8343 34.2403 16.9116 35.5111 17.3467L35.1105 17.9613C34.1333 17.6091 33.3771 16.8805 33.0007 15.9862ZM34.6685 18.5552C36.471 18.5552 37.576 19.1492 37.576 20.1713C37.576 21.1934 36.471 21.7804 34.6685 21.7873C32.8591 21.7804 31.7541 21.1934 31.761 20.1713C31.7541 19.1492 32.8591 18.5552 34.6685 18.5552ZM34.6685 21.1727C35.9945 21.1796 36.8163 20.7997 36.8163 20.1713C36.8163 19.5359 35.9945 19.1561 34.6685 19.1561C33.3356 19.1561 32.5138 19.5359 32.5207 20.1713C32.5138 20.7997 33.3356 21.1796 34.6685 21.1727ZM42.2249 13.9075H44.352V14.4945H39.3243V13.9075H41.4583V13.0442H42.2249V13.9075ZM45.9196 15.7445H47.218V16.3867H45.9196V18.9351H45.1531V13.1202H45.9196V15.7445ZM44.6144 17.7749L44.6766 18.3343C42.7981 18.6657 40.7194 18.6796 39.1931 18.6796L39.1034 18.0511C39.7974 18.0511 40.6089 18.0511 41.4583 18.0235V17.3847C40.4466 17.2949 39.794 16.8287 39.8009 16.1105C39.794 15.3163 40.6089 14.826 41.8313 14.8329C43.0605 14.826 43.8616 15.3163 43.8685 16.1105C43.8616 16.8218 43.2297 17.288 42.2249 17.3847V17.9959C43.0364 17.9544 43.8547 17.8888 44.6144 17.7749ZM40.5329 16.1105C40.526 16.5594 41.0301 16.8702 41.8313 16.8633C42.6324 16.8702 43.1365 16.5594 43.1365 16.1105C43.1365 15.6478 42.6324 15.3646 41.8313 15.3715C41.0301 15.3646 40.526 15.6478 40.5329 16.1105ZM45.1531 19.9848H40.1738V19.3702H45.9196V21.7942H45.1531V19.9848ZM50.9277 14.1837H53.1307V14.8122H47.9581V14.1837H50.168V13.1202H50.9277V14.1837ZM54.726 13.1202V15.9793H56.0313V16.6285H54.726V19.6257H53.9595V13.1202H54.726ZM52.6335 16.9116C52.6266 17.8854 51.7841 18.5138 50.5479 18.5138C49.291 18.5138 48.4484 17.8854 48.4553 16.9116C48.4484 15.924 49.291 15.2887 50.5479 15.2887C51.7841 15.2887 52.6266 15.924 52.6335 16.9116ZM49.1874 16.9116C49.1805 17.5193 49.726 17.913 50.5479 17.9061C51.3559 17.913 51.9015 17.5193 51.9084 16.9116C51.9015 16.2901 51.3559 15.8895 50.5479 15.8895C49.726 15.8895 49.1805 16.2901 49.1874 16.9116ZM49.291 19.1008H50.0506V20.9655H55.1266V21.6008H49.291V19.1008ZM65.7916 13.1202H66.5582V19.4876H65.7916V13.1202ZM62.0796 15.8999C61.7032 16.9669 60.916 17.8198 59.9008 18.2307L59.4795 17.6298C60.7916 17.1188 61.6825 15.8481 61.6825 14.4738V13.6036H62.4629V14.4738C62.456 15.7997 63.3607 16.9876 64.6521 17.4572L64.2516 18.0718C63.2468 17.6816 62.4629 16.9012 62.0796 15.8999ZM61.7171 18.9006V20.9655H66.8276V21.6008H60.9505V18.9006H61.7171ZM74.377 14.8536V14.6257H69.0248V13.9903H75.1436V14.8536C75.1367 15.924 75.1367 17.1119 74.819 18.8591L74.0455 18.7693C74.3701 17.1119 74.3701 15.8964 74.377 14.8536ZM72.0428 16.8218V19.9227H76.0967V20.5649H68.1823V19.9227H71.2831V16.8218H72.0428ZM86.0642 16.6008V13.1133H86.8308V21.808H86.0642V17.2362H84.1581V16.6008H86.0642ZM82.6319 15.2472V15.9378C82.6319 17.3743 83.6125 18.7831 84.8971 19.3564L84.462 19.9572C83.471 19.5048 82.6526 18.5587 82.2658 17.4123C81.8895 18.6209 81.0815 19.6326 80.0904 20.1091L79.6553 19.5152C80.9261 18.9213 81.8791 17.4365 81.8791 15.9378V15.2472H79.8832V14.6257H81.8791V13.2721H82.6457V14.6257H84.6001V15.2472H82.6319ZM94.8361 21.808V13.1133H95.5957V21.808H94.8361ZM89.7186 17.0083V19.0594C91.1586 19.0559 92.4396 18.9938 93.9935 18.7417L94.0695 19.384C92.4742 19.6395 91.1551 19.7017 89.6565 19.7017H88.9314V16.3798H92.1841V14.5566H88.9175V13.9213H92.9576V17.0083H89.7186ZM98.2419 14.6464H103.366V13.9282H98.2143V13.3757H104.133V15.1713H99.0016V15.9309H104.285V16.4903H98.2419V14.6464ZM97.206 17.7472V17.1464H105.155V17.7472H97.206ZM104.16 20.2887H98.9463V21.1174H104.444V21.6768H98.1797V19.7569H103.401V19.018H98.1659V18.4448H104.16V20.2887ZM115.081 21.8011V13.1202H115.834V21.8011H115.081ZM111.531 17.0843C110.233 17.0912 109.307 16.366 109.307 15.3094C109.307 14.2459 110.233 13.5276 111.531 13.5345C112.83 13.5276 113.762 14.2459 113.762 15.3094C113.762 16.366 112.83 17.0912 111.531 17.0843ZM111.531 14.163C110.668 14.1561 110.046 14.6326 110.053 15.3094C110.046 15.9862 110.668 16.4558 111.531 16.4489C112.408 16.4558 113.03 15.9862 113.03 15.3094C113.03 14.6326 112.408 14.1561 111.531 14.163ZM114.439 17.5124L114.494 18.0925C113.665 18.2445 112.802 18.3343 111.966 18.3895V21.5249H111.2V18.4309C110.316 18.4689 109.48 18.4758 108.755 18.4793L108.651 17.8301C110.281 17.8301 112.512 17.7956 114.439 17.5124ZM124.129 16.7735V13.1133H124.861V21.7942H124.129V17.4088H122.976V21.366H122.251V13.3204H122.976V16.7735H124.129ZM119.246 13.3757H120.013V14.6119H121.802V15.2403H117.444V14.6119H119.246V13.3757ZM119.626 15.8273C120.717 15.8273 121.498 16.6423 121.505 17.7956C121.498 18.9627 120.717 19.7845 119.626 19.7845C118.542 19.7845 117.755 18.9627 117.762 17.7956C117.755 16.6423 118.542 15.8273 119.626 15.8273ZM119.626 19.1146C120.317 19.1215 120.821 18.5691 120.821 17.7956C120.821 17.0359 120.317 16.4765 119.626 16.4696C118.936 16.4765 118.438 17.0359 118.438 17.7956C118.438 18.5691 118.936 19.1215 119.626 19.1146ZM135.706 13.1133V15.3785H137.011V16.0207H135.706V18.3964H134.939V13.1133H135.706ZM131.462 15.8412C131.089 16.8667 130.312 17.6678 129.297 18.058L128.883 17.4434C130.188 16.9599 131.058 15.7997 131.065 14.4599V13.5622H131.818V14.5152C131.818 15.6961 132.715 16.7804 133.972 17.2086L133.558 17.8163C132.598 17.4641 131.838 16.7459 131.462 15.8412ZM132.923 18.6174C134.704 18.6174 135.782 19.1975 135.782 20.192C135.782 21.2003 134.704 21.7735 132.923 21.7735C131.134 21.7735 130.043 21.2003 130.043 20.192C130.043 19.1975 131.134 18.6174 132.923 18.6174ZM132.923 21.1657C134.235 21.1588 135.036 20.8066 135.036 20.192C135.036 19.5981 134.235 19.232 132.923 19.232C131.61 19.232 130.802 19.5981 130.809 20.192C130.802 20.8066 131.61 21.1588 132.923 21.1657ZM140.79 13.866H142.917V14.453H137.889V13.866H140.023V13.0442H140.79V13.866ZM144.484 13.1202V15.7376H145.783V16.3798H144.484V19.0041H143.718V13.1202H144.484ZM143.179 17.7196L143.241 18.2583C141.377 18.5829 139.298 18.6105 137.758 18.6105L137.668 17.989C138.366 17.9924 139.177 17.989 140.023 17.9648V17.2707C139.001 17.1844 138.359 16.7355 138.366 16.0483C138.359 15.2749 139.16 14.8191 140.396 14.8191C141.632 14.8191 142.426 15.2749 142.433 16.0483C142.426 16.7286 141.798 17.1775 140.79 17.2673V17.9337C141.601 17.8923 142.42 17.8267 143.179 17.7196ZM139.098 16.0483C139.091 16.4834 139.595 16.7528 140.396 16.7528C141.197 16.7528 141.701 16.4834 141.701 16.0483C141.701 15.6271 141.197 15.3508 140.396 15.3508C139.595 15.3508 139.091 15.6271 139.098 16.0483ZM141.688 19.1146C143.49 19.1077 144.54 19.5843 144.547 20.4544C144.54 21.3177 143.49 21.7804 141.688 21.7873C139.871 21.7804 138.828 21.3177 138.828 20.4544C138.828 19.5843 139.871 19.1077 141.688 19.1146ZM141.688 21.2003C143.013 21.2072 143.759 20.924 143.766 20.4544C143.759 19.9641 143.013 19.6809 141.688 19.6878C140.348 19.6809 139.595 19.9641 139.602 20.4544C139.595 20.924 140.348 21.2072 141.688 21.2003ZM150.452 16.2831C148.519 16.2762 147.379 15.7445 147.379 14.7638C147.379 13.797 148.519 13.2652 150.452 13.2652C152.386 13.2652 153.519 13.797 153.519 14.7638C153.519 15.7445 152.386 16.2762 150.452 16.2831ZM150.452 13.8453C149.016 13.8453 148.173 14.1906 148.18 14.7638C148.173 15.3646 149.016 15.6961 150.452 15.6961C151.896 15.6961 152.738 15.3646 152.738 14.7638C152.738 14.1906 151.896 13.8453 150.452 13.8453ZM146.502 17.4917V16.8702H154.417V17.4917H146.502ZM153.394 20.1851H148.236V21.0898H153.657V21.6975H147.483V19.6188H152.642V18.8315H147.462V18.2445H153.394V20.1851ZM164.356 13.1133H165.123V17.768H164.356V13.1133ZM160.434 13.5345C161.753 13.5276 162.706 14.3425 162.706 15.5304C162.706 16.7113 161.753 17.5262 160.434 17.5193C159.115 17.5262 158.155 16.7113 158.155 15.5304C158.155 14.3425 159.115 13.5276 160.434 13.5345ZM160.434 14.1837C159.543 14.1768 158.901 14.7362 158.908 15.5304C158.901 16.3246 159.543 16.884 160.434 16.884C161.318 16.884 161.96 16.3246 161.96 15.5304C161.96 14.7362 161.318 14.1768 160.434 14.1837ZM159.502 18.2099H160.254V19.2666H164.363V18.2099H165.123V21.6768H159.502V18.2099ZM160.254 19.8812V21.0483H164.363V19.8812H160.254ZM173.177 14.4116V13.1202H173.943V18.4517H173.177V16.8356H171.443V16.2072H173.177V15.0331H171.443V14.4116H173.177ZM171.374 17.2086L171.45 17.8439C170.373 18.0235 169.489 18.0511 167.735 18.0511H167.12V15.4889H170.103V14.2666H167.099V13.645H170.863V16.0829H167.88V17.4296C169.51 17.4296 170.356 17.395 171.374 17.2086ZM173.177 19.5497H168.094V18.9213H173.943V21.808H173.177V19.5497ZM182.204 16.7735V13.1133H182.936V21.7942H182.204V17.4088H181.051V21.366H180.326V13.3204H181.051V16.7735H182.204ZM177.321 13.3757H178.088V14.6119H179.877V15.2403H175.519V14.6119H177.321V13.3757ZM177.701 15.8273C178.792 15.8273 179.573 16.6423 179.58 17.7956C179.573 18.9627 178.792 19.7845 177.701 19.7845C176.617 19.7845 175.83 18.9627 175.837 17.7956C175.83 16.6423 176.617 15.8273 177.701 15.8273ZM177.701 19.1146C178.392 19.1215 178.896 18.5691 178.896 17.7956C178.896 17.0359 178.392 16.4765 177.701 16.4696C177.011 16.4765 176.513 17.0359 176.513 17.7956C176.513 18.5691 177.011 19.1215 177.701 19.1146ZM185.099 17.3191L184.802 16.7113C186.307 16.4903 187.854 15.5028 187.861 14.3356V14.2804H185.078V13.6588H191.487V14.2804H188.718V14.3356C188.711 15.5028 190.258 16.4903 191.777 16.7113L191.487 17.3191C190.133 17.0877 188.814 16.366 188.286 15.3232C187.758 16.366 186.435 17.0877 185.099 17.3191ZM184.332 18.058H192.247V18.6934H188.649V21.7873H187.896V18.6934H184.332V18.058ZM199.513 21.808V13.1133H200.28V21.808H199.513ZM196.212 13.866V15.4475C196.205 17.029 197.282 18.6243 198.56 19.2044L198.09 19.8122C197.103 19.3287 196.25 18.2997 195.836 17.0635C195.435 18.3722 194.579 19.4738 193.56 19.9848L193.077 19.3425C194.368 18.7486 195.438 17.0912 195.445 15.4475V13.866H196.212ZM208.347 17.1395H206.31V17.9199H202.325V13.8729H206.31V14.6464H208.347V13.1202H209.114V19.453H208.347V17.1395ZM203.085 17.3052H205.557V14.5014H203.085V17.3052ZM208.347 16.5041V15.2887H206.31V16.5041H208.347ZM204.272 18.8867V20.9655H209.314V21.6008H203.499V18.8867H204.272ZM220.324 16.5041H221.505V17.1602H220.324V21.7942H219.565V13.1133H220.324V16.5041ZM214.205 16.1657H215.303V13.9213H215.953V19.6948H213.549V13.9213H214.205V16.1657ZM217.078 16.1657H218.149V13.9213H218.798V19.6948H216.429V13.9213H217.078V16.1657ZM214.205 19.0456H215.303V16.7804H214.205V19.0456ZM217.078 19.0456H218.149V16.7804H217.078V19.0456ZM223.184 14.9779H228.309V14.0249H223.157V13.4102H229.075V15.5511H223.944V16.518H229.262V17.1188H223.184V14.9779ZM222.149 18.5552V17.9268H230.097V18.5552H222.149ZM223.205 19.239H223.979V20.9655H229.262V21.6008H223.205V19.239ZM234.326 18.2238L234.008 17.616C235.472 17.3605 237.178 16.145 237.178 14.7638V14.5497H234.271V13.9006H240.88V14.5497H237.972V14.7638C237.972 16.145 239.685 17.3398 241.184 17.5815L240.866 18.1892C239.544 17.9268 238.142 17.0843 237.582 15.886C237.023 17.0912 235.628 17.9544 234.326 18.2238ZM237.966 17.9199V20.0331H241.564V20.6754H233.615V20.0331H237.199V17.9199H237.966ZM248.795 21.7942V13.1133H249.562V21.7942H248.795ZM245.612 15.2472V15.9378C245.612 17.395 246.627 18.8039 247.932 19.3564L247.504 19.9572C246.503 19.5117 245.653 18.5691 245.249 17.4227C244.855 18.6381 244.016 19.636 243.015 20.1091L242.58 19.5152C243.871 18.9282 244.859 17.4641 244.859 15.9378V15.2472H242.815V14.6257H244.852V13.2721H245.612V14.6257H247.628V15.2472H245.612ZM257.919 16.6423H259.328V17.2914H257.919V21.7873H257.153V13.1133H257.919V16.6423ZM251.663 14.0456H255.675C255.668 16.5041 254.515 18.7417 251.683 20.1367L251.255 19.5359C253.5 18.4206 254.722 16.7493 254.895 14.6878H251.663V14.0456ZM269.372 16.6423H270.781V17.2914H269.372V21.7873H268.605V13.1133H269.372V16.6423ZM263.115 14.0456H267.127C267.12 16.5041 265.967 18.7417 263.136 20.1367L262.707 19.5359C264.952 18.4206 266.174 16.7493 266.347 14.6878H263.115V14.0456ZM273.289 15.5442H278.454V16.1727H272.529V13.2859H273.289V15.5442ZM271.445 17.8232V17.1878H279.366V17.8232H271.445ZM275.395 18.6036C277.26 18.6036 278.378 19.1699 278.385 20.1782C278.378 21.1865 277.26 21.7528 275.395 21.7528C273.524 21.7528 272.398 21.1865 272.398 20.1782C272.398 19.1699 273.524 18.6036 275.395 18.6036ZM275.395 21.1519C276.776 21.1519 277.612 20.7859 277.619 20.1782C277.612 19.5635 276.776 19.2182 275.395 19.2113C274.007 19.2182 273.171 19.5635 273.178 20.1782C273.171 20.7859 274.007 21.1519 275.395 21.1519ZM283.228 14.011H285.431V14.6395H280.258V14.011H282.468V13.0304H283.228V14.011ZM287.026 15.337H288.331V15.9862H287.026V18.1547H286.259V13.1133H287.026V15.337ZM282.848 18.0856C281.584 18.0925 280.748 17.4917 280.755 16.5663C280.748 15.6409 281.584 15.047 282.848 15.047C284.091 15.047 284.927 15.6409 284.934 16.5663C284.927 17.4917 284.091 18.0925 282.848 18.0856ZM281.487 16.5663C281.48 17.1326 282.026 17.5055 282.848 17.5055C283.656 17.5055 284.201 17.1326 284.208 16.5663C284.201 16.0069 283.656 15.6271 282.848 15.634C282.026 15.6271 281.48 16.0069 281.487 16.5663ZM282.295 19.4669H286.259V18.5345H287.026V21.6768H281.536V18.5345H282.295V19.4669ZM282.295 21.0552H286.259V20.0746H282.295V21.0552ZM295.425 21.7942V13.1133H296.185V21.7942H295.425ZM290.349 13.9696V18.8867C291.675 18.8833 293.039 18.7797 294.5 18.4724L294.603 19.1285C293.063 19.4461 291.689 19.5566 290.301 19.5566H289.596V13.9696H290.349ZM304.542 16.5456H305.992V17.1878H304.542V21.808H303.776V13.1133H304.542V16.5456ZM298.969 14.5912V18.9834C300.54 18.98 301.652 18.9178 302.94 18.6796L303.037 19.3425C301.676 19.5843 300.537 19.6326 298.886 19.6326H298.202V13.9627H302.256V14.5912H298.969ZM307.534 21.0552C307.188 21.0552 306.898 20.7721 306.905 20.4268C306.898 20.0815 307.188 19.7983 307.534 19.7983C307.879 19.7983 308.162 20.0815 308.162 20.4268C308.162 20.7721 307.879 21.0552 307.534 21.0552Z" fill="#475467"/>
</g>
<defs>
<clipPath id="clip0_1401_9335">
<rect width="328" height="34" rx="8" fill="white"/>
</clipPath>
</defs>
</svg>
