<svg width="16" height="16" viewBox="0 0 16 16" fill="none" xmlns="http://www.w3.org/2000/svg">
<path d="M8.50156 10.3996C9.13808 10.3996 9.74853 10.1468 10.1986 9.69667C10.6487 9.24658 10.9016 8.63613 10.9016 7.99961C10.9016 7.36309 10.6487 6.75264 10.1986 6.30255C9.74853 5.85247 9.13808 5.59961 8.50156 5.59961C7.86504 5.59961 7.25459 5.85247 6.80451 6.30255C6.35442 6.75264 6.10156 7.36309 6.10156 7.99961C6.10156 8.63613 6.35442 9.24658 6.80451 9.69667C7.25459 10.1468 7.86504 10.3996 8.50156 10.3996ZM8.90156 1.99961C8.90156 1.89352 8.85942 1.79178 8.78441 1.71677C8.70939 1.64175 8.60765 1.59961 8.50156 1.59961C8.39548 1.59961 8.29373 1.64175 8.21872 1.71677C8.1437 1.79178 8.10156 1.89352 8.10156 1.99961V3.21561C6.97051 3.3102 5.90955 3.80246 5.10698 4.60503C4.30442 5.4076 3.81215 6.46856 3.71756 7.59961H2.50156C2.39548 7.59961 2.29373 7.64175 2.21872 7.71677C2.14371 7.79178 2.10156 7.89352 2.10156 7.99961C2.10156 8.1057 2.14371 8.20744 2.21872 8.28245C2.29373 8.35747 2.39548 8.39961 2.50156 8.39961H3.71756C3.81215 9.53066 4.30442 10.5916 5.10698 11.3942C5.90955 12.1968 6.97051 12.689 8.10156 12.7836V13.9996C8.10156 14.1057 8.1437 14.2074 8.21872 14.2825C8.29373 14.3575 8.39548 14.3996 8.50156 14.3996C8.60765 14.3996 8.70939 14.3575 8.78441 14.2825C8.85942 14.2074 8.90156 14.1057 8.90156 13.9996V12.7836C10.0326 12.6889 11.0934 12.1966 11.896 11.394C12.6985 10.5915 13.1908 9.53061 13.2856 8.39961H14.5016C14.6076 8.39961 14.7094 8.35747 14.7844 8.28245C14.8594 8.20744 14.9016 8.1057 14.9016 7.99961C14.9016 7.89352 14.8594 7.79178 14.7844 7.71677C14.7094 7.64175 14.6076 7.59961 14.5016 7.59961H13.2856C13.191 6.46856 12.6987 5.4076 11.8961 4.60503C11.0936 3.80246 10.0326 3.3102 8.90156 3.21561V1.99961ZM8.50156 11.9996C7.4407 11.9996 6.42328 11.5782 5.67314 10.828C4.92299 10.0779 4.50156 9.06048 4.50156 7.99961C4.50156 6.93874 4.92299 5.92133 5.67314 5.17118C6.42328 4.42104 7.4407 3.99961 8.50156 3.99961C9.56243 3.99961 10.5798 4.42104 11.33 5.17118C12.0801 5.92133 12.5016 6.93874 12.5016 7.99961C12.5016 9.06048 12.0801 10.0779 11.33 10.828C10.5798 11.5782 9.56243 11.9996 8.50156 11.9996Z" fill="white"/>
</svg>
