<svg width="16" height="16" viewBox="0 0 16 16" fill="none" xmlns="http://www.w3.org/2000/svg">
<path d="M18.7509 8.25H11.2509C11.052 8.25 10.8612 8.32902 10.7205 8.46967C10.5799 8.61032 10.5009 8.80109 10.5009 9V12C10.5027 13.0625 10.8801 14.0901 11.5663 14.9012C12.2525 15.7123 13.2034 16.2547 14.2509 16.4325V21H12.0009V22.5H18.0009V21H15.7509V16.4325C16.7983 16.2547 17.7492 15.7123 18.4355 14.9012C19.1217 14.0901 19.499 13.0625 19.5009 12V9C19.5009 8.80109 19.4219 8.61032 19.2812 8.46967C19.1406 8.32902 18.9498 8.25 18.7509 8.25ZM18.0009 12C18.0009 12.7956 17.6848 13.5587 17.1222 14.1213C16.5596 14.6839 15.7965 15 15.0009 15C14.2052 15 13.4422 14.6839 12.8796 14.1213C12.3169 13.5587 12.0009 12.7956 12.0009 12V9.75H18.0009V12Z" fill="current"/>
<path d="M11.2509 0.75H7.50087C7.30196 0.75 7.11119 0.829018 6.97054 0.96967C6.82989 1.11032 6.75087 1.30109 6.75087 1.5V7.0275C6.02208 7.45446 5.42596 8.07514 5.02875 8.82057C4.63154 9.56599 4.44881 10.407 4.50087 11.25V21.75C4.50087 21.9489 4.57989 22.1397 4.72054 22.2803C4.86119 22.421 5.05196 22.5 5.25087 22.5H9.00087V21H6.00087V11.25C6.00087 8.859 7.67412 8.235 7.73787 8.21175L8.25087 8.04V2.25H10.5009V6H12.0009V1.5C12.0009 1.30109 11.9219 1.11032 11.7812 0.96967C11.6405 0.829018 11.4498 0.75 11.2509 0.75Z" fill="black"/>
</svg>
