<svg width="16" height="16" viewBox="0 0 16 16" fill="none" xmlns="http://www.w3.org/2000/svg">
<path d="M8.00156 10.3996C8.63808 10.3996 9.24853 10.1468 9.69862 9.69667C10.1487 9.24658 10.4016 8.63613 10.4016 7.99961C10.4016 7.36309 10.1487 6.75264 9.69862 6.30255C9.24853 5.85247 8.63808 5.59961 8.00156 5.59961C7.36504 5.59961 6.75459 5.85247 6.30451 6.30255C5.85442 6.75264 5.60156 7.36309 5.60156 7.99961C5.60156 8.63613 5.85442 9.24658 6.30451 9.69667C6.75459 10.1468 7.36504 10.3996 8.00156 10.3996ZM8.40156 1.99961C8.40156 1.89352 8.35942 1.79178 8.28441 1.71677C8.20939 1.64175 8.10765 1.59961 8.00156 1.59961C7.89548 1.59961 7.79373 1.64175 7.71872 1.71677C7.6437 1.79178 7.60156 1.89352 7.60156 1.99961V3.21561C6.47051 3.3102 5.40955 3.80246 4.60698 4.60503C3.80442 5.4076 3.31215 6.46856 3.21756 7.59961H2.00156C1.89548 7.59961 1.79373 7.64175 1.71872 7.71677C1.64371 7.79178 1.60156 7.89352 1.60156 7.99961C1.60156 8.1057 1.64371 8.20744 1.71872 8.28245C1.79373 8.35747 1.89548 8.39961 2.00156 8.39961H3.21756C3.31215 9.53066 3.80442 10.5916 4.60698 11.3942C5.40955 12.1968 6.47051 12.689 7.60156 12.7836V13.9996C7.60156 14.1057 7.6437 14.2074 7.71872 14.2825C7.79373 14.3575 7.89548 14.3996 8.00156 14.3996C8.10765 14.3996 8.20939 14.3575 8.28441 14.2825C8.35942 14.2074 8.40156 14.1057 8.40156 13.9996V12.7836C9.53256 12.6889 10.5934 12.1966 11.396 11.394C12.1985 10.5915 12.6908 9.53061 12.7856 8.39961H14.0016C14.1076 8.39961 14.2094 8.35747 14.2844 8.28245C14.3594 8.20744 14.4016 8.1057 14.4016 7.99961C14.4016 7.89352 14.3594 7.79178 14.2844 7.71677C14.2094 7.64175 14.1076 7.59961 14.0016 7.59961H12.7856C12.691 6.46856 12.1987 5.4076 11.3961 4.60503C10.5936 3.80246 9.53262 3.3102 8.40156 3.21561V1.99961ZM8.00156 11.9996C6.9407 11.9996 5.92328 11.5782 5.17314 10.828C4.42299 10.0779 4.00156 9.06048 4.00156 7.99961C4.00156 6.93874 4.42299 5.92133 5.17314 5.17118C5.92328 4.42104 6.9407 3.99961 8.00156 3.99961C9.06243 3.99961 10.0798 4.42104 10.83 5.17118C11.5801 5.92133 12.0016 6.93874 12.0016 7.99961C12.0016 9.06048 11.5801 10.0779 10.83 10.828C10.0798 11.5782 9.06243 11.9996 8.00156 11.9996Z" fill="current"/>
</svg>
