<svg width="49" height="48" viewBox="0 0 49 48" fill="none" xmlns="http://www.w3.org/2000/svg">
<path d="M8.01172 28.1208C8.01172 29.0952 8.20365 30.0601 8.57655 30.9603C8.94945 31.8606 9.49602 32.6786 10.1851 33.3676C11.5766 34.7592 13.464 35.541 15.4319 35.541H35.2192C36.6801 35.5436 38.0876 34.9921 39.1579 33.9977C40.2282 33.0034 40.8815 31.6401 40.9861 30.1829C41.0907 28.7258 40.6388 27.2832 39.7215 26.1461C38.8043 25.0091 37.49 24.2622 36.0437 24.0561C36.0598 21.2509 35.0537 18.5358 33.2136 16.4184C31.3734 14.301 28.8251 12.9262 26.045 12.551C23.265 12.1758 20.4434 12.8259 18.1078 14.3798C15.7722 15.9336 14.0824 18.2849 13.3543 20.994C11.8127 21.4442 10.4587 22.3822 9.49543 23.6671C8.53215 24.9521 8.01154 26.5148 8.01172 28.1208Z" stroke="black" stroke-width="1.7" stroke-linejoin="round"/>
<path d="M21.2031 22.3496L27.7989 28.9454M21.2031 28.9454L27.7989 22.3496" stroke="black" stroke-width="1.7" stroke-linecap="round" stroke-linejoin="round"/>
</svg>
