<svg width="16" height="16" viewBox="0 0 16 16" fill="none" xmlns="http://www.w3.org/2000/svg">
<path d="M12.5019 5.5H7.50188C7.36928 5.5 7.2421 5.55268 7.14833 5.64645C7.05456 5.74022 7.00188 5.86739 7.00188 6V8C7.0031 8.7083 7.25468 9.39337 7.71216 9.93412C8.16965 10.4749 8.80357 10.8365 9.50188 10.955V14H8.00188V15H12.0019V14H10.5019V10.955C11.2002 10.8365 11.8341 10.4749 12.2916 9.93412C12.7491 9.39337 13.0007 8.7083 13.0019 8V6C13.0019 5.86739 12.9492 5.74022 12.8554 5.64645C12.7617 5.55268 12.6345 5.5 12.5019 5.5ZM12.0019 8C12.0019 8.53043 11.7912 9.03914 11.4161 9.41421C11.041 9.78929 10.5323 10 10.0019 10C9.47145 10 8.96274 9.78929 8.58767 9.41421C8.2126 9.03914 8.00188 8.53043 8.00188 8V6.5H12.0019V8Z" fill="white"/>
<path d="M7.50188 0.5H5.00188C4.86928 0.5 4.7421 0.552678 4.64833 0.646447C4.55456 0.740215 4.50188 0.867392 4.50188 1V4.685C4.01602 4.96964 3.61861 5.38343 3.3538 5.88038C3.089 6.37733 2.96718 6.93797 3.00188 7.5V14.5C3.00188 14.6326 3.05456 14.7598 3.14833 14.8536C3.2421 14.9473 3.36928 15 3.50188 15H6.00188V14H4.00188V7.5C4.00188 5.906 5.11738 5.49 5.15988 5.4745L5.50188 5.36V1.5H7.00188V4H8.00188V1C8.00188 0.867392 7.9492 0.740215 7.85544 0.646447C7.76167 0.552678 7.63449 0.5 7.50188 0.5Z" fill="white"/>
</svg>
