<svg width="13" height="12" viewBox="0 0 13 12" fill="none" xmlns="http://www.w3.org/2000/svg">
<path d="M9.812 6.36337C9.71 6.12075 9.59375 5.84587 9.48088 5.5065C9.18463 4.61812 10.1311 3.64912 10.1401 3.64012L9.60988 3.10988C9.55738 3.16238 8.32625 4.41412 8.76913 5.7435C8.89138 6.11025 9.01363 6.39975 9.12088 6.65475C9.37114 7.14921 9.50104 7.69581 9.5 8.25C9.45605 8.6967 9.28455 9.12133 9.00596 9.47326C8.72737 9.82519 8.35343 10.0896 7.92875 10.2349C8.06291 9.70901 8.06091 9.15763 7.92294 8.63275C7.78496 8.10787 7.51555 7.62678 7.14013 7.23487L6.74863 6.84338L6.53038 7.35225C5.84188 8.95875 5.0225 9.66 4.54062 9.9525C4.24481 9.77133 3.99622 9.52253 3.81531 9.22655C3.6344 8.93058 3.52633 8.59589 3.5 8.25C3.52587 7.77794 3.64423 7.31555 3.84838 6.88912C4.09048 6.37509 4.22704 5.81773 4.25 5.25V4.58325C4.57775 4.71825 5 5.07188 5 6V6.97613L5.65363 6.25088C6.82063 4.95563 6.57725 3.41325 6.10588 2.38538C6.46418 2.50481 6.77188 2.74135 6.97942 3.05691C7.18695 3.37247 7.28226 3.74869 7.25 4.125H8C8 2.04862 6.28288 1.5 5.375 1.5H4.625L5.075 2.09962C5.12638 2.169 6.14825 3.57225 5.58238 4.98263C5.45645 4.6282 5.22568 4.32048 4.92072 4.10031C4.61576 3.88015 4.25104 3.75797 3.875 3.75H3.5V5.25C3.47413 5.72206 3.35577 6.18445 3.15163 6.61088C2.90952 7.12491 2.77296 7.68227 2.75 8.25C2.75 9.693 4.18363 11.25 6.5 11.25C8.81638 11.25 10.25 9.693 10.25 8.25C10.2506 7.59586 10.1007 6.95036 9.812 6.36337ZM5.31313 10.3222C6.00487 9.74963 6.56369 9.0333 6.95075 8.223C7.1574 8.55666 7.27479 8.93785 7.29167 9.32996C7.30855 9.72207 7.22434 10.1119 7.04713 10.4621C6.86576 10.4865 6.683 10.4992 6.5 10.5C6.09754 10.5028 5.69711 10.4428 5.31313 10.3222Z" fill="white"/>
</svg>
