<svg width="48" height="48" viewBox="0 0 48 48" fill="none" xmlns="http://www.w3.org/2000/svg">
<path d="M10.5 11.532C11.4308 13.7742 13.2219 15.5672 15.4626 16.5C13.2219 17.4328 11.4308 19.2258 10.5 21.468C9.56916 19.2258 7.7781 17.4328 5.53741 16.5C7.7781 15.5672 9.56916 13.7742 10.5 11.532Z" fill="white" stroke="black" stroke-width="1.5"/>
<path d="M24 29C25.094 29 26.1432 28.5654 26.9168 27.7918C27.6904 27.0182 28.125 25.969 28.125 24.875C28.125 23.781 27.6904 22.7318 26.9168 21.9582C26.1432 21.1846 25.094 20.75 24 20.75C22.906 20.75 21.8568 21.1846 21.0832 21.9582C20.3096 22.7318 19.875 23.781 19.875 24.875C19.875 25.969 20.3096 27.0182 21.0832 27.7918C21.8568 28.5654 22.906 29 24 29ZM24 30.375C22.5413 30.375 21.1424 29.7955 20.1109 28.7641C19.0795 27.7326 18.5 26.3337 18.5 24.875C18.5 23.4163 19.0795 22.0174 20.1109 20.9859C21.1424 19.9545 22.5413 19.375 24 19.375C25.4587 19.375 26.8576 19.9545 27.8891 20.9859C28.9205 22.0174 29.5 23.4163 29.5 24.875C29.5 26.3337 28.9205 27.7326 27.8891 28.7641C26.8576 29.7955 25.4587 30.375 24 30.375Z" fill="black"/>
<path d="M24 29C24.1823 29 24.3572 29.0724 24.4861 29.2014C24.6151 29.3303 24.6875 29.5052 24.6875 29.6875V35.1875C24.6875 35.3698 24.6151 35.5447 24.4861 35.6736C24.3572 35.8026 24.1823 35.875 24 35.875C23.8177 35.875 23.6428 35.8026 23.5139 35.6736C23.3849 35.5447 23.3125 35.3698 23.3125 35.1875V29.6875C23.3125 29.5052 23.3849 29.3303 23.5139 29.2014C23.6428 29.0724 23.8177 29 24 29Z" fill="black"/>
<path d="M21.25 31.9453V33.3409C18.7956 33.7342 17.125 34.5839 17.125 35.1876C17.125 35.9974 20.1308 37.2501 24 37.2501C27.8692 37.2501 30.875 35.9974 30.875 35.1876C30.875 34.5826 29.2044 33.7342 26.75 33.3409V31.9453C29.9537 32.4169 32.25 33.6916 32.25 35.1876C32.25 37.0851 28.5567 38.6251 24 38.6251C19.4433 38.6251 15.75 37.0851 15.75 35.1876C15.75 33.6902 18.0463 32.4169 21.25 31.9453Z" fill="black"/>
</svg>
