<svg width="14" height="14" viewBox="0 0 14 14" fill="none" xmlns="http://www.w3.org/2000/svg">
<path d="M4.375 1.75C3.17188 1.75 2.1875 2.73438 2.1875 3.9375V9.1875C2.18811 9.69254 2.3341 10.1867 2.60804 10.611C2.88198 11.0353 3.27228 11.3718 3.73231 11.5802L2.625 12.6875H3.6505L4.53906 11.7989C4.62656 11.8077 4.72194 11.8125 4.8125 11.8125H9.1875C9.27806 11.8125 9.37388 11.8073 9.46094 11.7989L10.3495 12.6875H11.375L10.2677 11.5802C10.7277 11.3718 11.118 11.0353 11.392 10.611C11.6659 10.1867 11.8119 9.69254 11.8125 9.1875V3.9375C11.8125 2.73438 10.8281 1.75 9.625 1.75H4.375ZM4.375 2.625H9.625C10.2025 2.625 10.6916 2.98725 10.8693 3.5H3.13075C3.22116 3.24272 3.38967 3.02009 3.61274 2.86322C3.83581 2.70635 4.1023 2.62307 4.375 2.625ZM3.0625 4.375H6.5625V7H3.0625V4.375ZM7.4375 4.375H10.9375V7H7.4375V4.375ZM3.0625 7.875H10.9375V9.1875C10.9375 10.1583 10.1583 10.9375 9.1875 10.9375H4.8125C3.84169 10.9375 3.0625 10.1583 3.0625 9.1875V7.875ZM4.59375 8.75C4.4197 8.75 4.25278 8.81914 4.12971 8.94221C4.00664 9.06528 3.9375 9.2322 3.9375 9.40625C3.9375 9.5803 4.00664 9.74722 4.12971 9.87029C4.25278 9.99336 4.4197 10.0625 4.59375 10.0625C4.7678 10.0625 4.93472 9.99336 5.05779 9.87029C5.18086 9.74722 5.25 9.5803 5.25 9.40625C5.25 9.2322 5.18086 9.06528 5.05779 8.94221C4.93472 8.81914 4.7678 8.75 4.59375 8.75ZM9.40625 8.75C9.2322 8.75 9.06528 8.81914 8.94221 8.94221C8.81914 9.06528 8.75 9.2322 8.75 9.40625C8.75 9.5803 8.81914 9.74722 8.94221 9.87029C9.06528 9.99336 9.2322 10.0625 9.40625 10.0625C9.5803 10.0625 9.74722 9.99336 9.87029 9.87029C9.99336 9.74722 10.0625 9.5803 10.0625 9.40625C10.0625 9.2322 9.99336 9.06528 9.87029 8.94221C9.74722 8.81914 9.5803 8.75 9.40625 8.75Z" fill="current"/>
</svg>
