<svg width="24" height="24" viewBox="0 0 24 24" fill="none" xmlns="http://www.w3.org/2000/svg">
<g clip-path="url(#clip0_1453_8555)">
<path d="M12.0015 22.8535C12.4215 22.8438 12.8245 22.6859 13.1392 22.4078C13.454 22.1296 13.6603 21.7491 13.7215 21.3335H10.2148C10.2778 21.7604 10.4937 22.1498 10.8224 22.4294C11.151 22.709 11.5701 22.8597 12.0015 22.8535Z" fill="black"/>
<path fill-rule="evenodd" clip-rule="evenodd" d="M20.0018 16.5998C20.4695 17.323 21.0323 17.98 21.6752 18.5531C21.7463 18.6156 21.8033 18.6925 21.8423 18.7787C21.8814 18.8649 21.9017 18.9585 21.9018 19.0531V19.9598C21.9018 20.1366 21.8316 20.3062 21.7066 20.4312C21.5815 20.5562 21.412 20.6264 21.2352 20.6264H2.70182C2.52501 20.6264 2.35544 20.5562 2.23042 20.4312C2.10539 20.3062 2.03516 20.1366 2.03516 19.9598V19.0531C2.03528 18.9585 2.05555 18.8649 2.09463 18.7787C2.13372 18.6925 2.19071 18.6156 2.26182 18.5531C2.89529 17.9783 3.44908 17.3213 3.90849 16.5998C4.41901 15.6015 4.72499 14.5113 4.80849 13.3931V10.0998C4.80498 8.35687 5.43321 6.67174 6.57684 5.35651C7.72047 4.04128 9.30199 3.18506 11.0285 2.94644V2.07311C11.0285 1.83706 11.1223 1.61069 11.2892 1.44378C11.4561 1.27687 11.6824 1.18311 11.9185 1.18311C12.1545 1.18311 12.3809 1.27687 12.5478 1.44378C12.7147 1.61069 12.8085 1.83706 12.8085 2.07311V2.93311C13.9372 3.07731 15.0066 3.48533 15.9349 4.11369C15.4287 4.2235 14.9512 4.40997 14.5149 4.66032C14.4268 4.61755 14.3374 4.57697 14.247 4.53862C13.5273 4.23336 12.7536 4.07604 11.9718 4.07604C11.1901 4.07604 10.4163 4.23336 9.69661 4.53862C8.97692 4.84388 8.32601 5.29085 7.78265 5.85291C7.2393 6.41496 6.8146 7.08061 6.53385 7.81022C6.25311 8.53982 6.12205 9.31846 6.14849 10.0998V13.3931C6.06678 14.7571 5.69156 16.0874 5.04849 17.2931C4.58822 18.0224 4.0421 18.6939 3.42182 19.2931H20.5218C19.9016 18.6939 19.3554 18.0224 18.8952 17.2931C18.3367 16.246 17.9802 15.1049 17.8426 13.9293C18.2891 13.8535 18.7155 13.7185 19.1134 13.5327C19.2112 14.6019 19.5126 15.6431 20.0018 16.5998Z" fill="black"/>
<circle cx="17" cy="9" r="3" fill="#F04438"/>
</g>
<defs>
<clipPath id="clip0_1453_8555">
<rect width="24" height="24" fill="white"/>
</clipPath>
</defs>
</svg>
