<svg width="current" height="current" viewBox="0 0 20 21" fill="none" xmlns="http://www.w3.org/2000/svg">
<path d="M19.6752 18.0536C19.0323 17.4805 18.4695 16.8235 18.0018 16.1003C17.4913 15.102 17.1853 14.0117 17.1018 12.8936V9.60026C17.1062 7.844 16.4692 6.14658 15.3103 4.82691C14.1515 3.50724 12.5506 2.65617 10.8085 2.43359V1.57359C10.8085 1.33755 10.7147 1.11118 10.5478 0.944269C10.3809 0.777361 10.1545 0.683594 9.91849 0.683594C9.68245 0.683594 9.45607 0.777361 9.28916 0.944269C9.12226 1.11118 9.02849 1.33755 9.02849 1.57359V2.44693C7.30199 2.68555 5.72047 3.54176 4.57684 4.857C3.43321 6.17223 2.80498 7.85736 2.80849 9.60026V12.8936C2.72499 14.0117 2.41901 15.102 1.90849 16.1003C1.44908 16.8218 0.895286 17.4788 0.261823 18.0536C0.190711 18.1161 0.133717 18.193 0.0946345 18.2792C0.0555519 18.3654 0.0352761 18.4589 0.0351562 18.5536V19.4603C0.0351562 19.6371 0.105394 19.8066 0.230418 19.9317C0.355443 20.0567 0.525012 20.1269 0.701823 20.1269H19.2352C19.412 20.1269 19.5815 20.0567 19.7066 19.9317C19.8316 19.8066 19.9018 19.6371 19.9018 19.4603V18.5536C19.9017 18.4589 19.8814 18.3654 19.8423 18.2792C19.8033 18.193 19.7463 18.1161 19.6752 18.0536ZM1.42182 18.7936C2.0421 18.1944 2.58822 17.5229 3.04849 16.7936C3.69156 15.5879 4.06678 14.2576 4.14849 12.8936V9.60026C4.12205 8.81895 4.25311 8.04031 4.53385 7.31071C4.8146 6.5811 5.2393 5.91545 5.78265 5.35339C6.32601 4.79134 6.97692 4.34437 7.69661 4.03911C8.4163 3.73385 9.19007 3.57653 9.97182 3.57653C10.7536 3.57653 11.5273 3.73385 12.247 4.03911C12.9667 4.34437 13.6176 4.79134 14.161 5.35339C14.7043 5.91545 15.129 6.5811 15.4098 7.31071C15.6905 8.04031 15.8216 8.81895 15.7952 9.60026V12.8936C15.8769 14.2576 16.2521 15.5879 16.8952 16.7936C17.3554 17.5229 17.9016 18.1944 18.5218 18.7936H1.42182Z" fill="black"/>
</svg>
