<svg width="57" height="20" viewBox="0 0 57 20" fill="none" xmlns="http://www.w3.org/2000/svg">
<path d="M7.99812 14.6808C8.04941 14.3211 8.04514 14.0043 7.9853 13.7303C7.92546 13.4563 7.81006 13.2166 7.63909 13.0111C7.47668 12.797 7.26724 12.6043 7.01079 12.4331C6.76289 12.2618 6.48935 12.0991 6.19015 11.945C5.56613 11.6453 4.98484 11.3156 4.4463 10.956C3.90775 10.5878 3.43332 10.1725 3.023 9.71012C2.61268 9.24774 2.30494 8.72113 2.09978 8.1303C1.89462 7.53947 1.81341 6.8673 1.85615 6.11378C1.91599 5.27463 2.1297 4.52112 2.49728 3.85322C2.8734 3.17677 3.36493 2.60735 3.97186 2.14496C4.58734 1.68257 5.26693 1.33578 6.01064 1.10459C6.76289 0.864835 7.54079 0.753519 8.34433 0.770645C9.48126 0.796333 10.4344 1.06606 11.2037 1.57982C11.9731 2.09358 12.5458 2.78716 12.922 3.66056C13.3066 4.5254 13.4819 5.49298 13.4477 6.56332H9.51118C9.51973 6.178 9.49836 5.79268 9.44707 5.40736C9.40432 5.01347 9.27182 4.68809 9.04957 4.43121C8.83586 4.16576 8.48538 4.02876 7.99812 4.0202C7.5878 4.01163 7.2245 4.10582 6.90821 4.30277C6.60047 4.49971 6.3483 4.76087 6.15169 5.08625C5.95507 5.40308 5.82685 5.75415 5.76701 6.13947C5.72427 6.45629 5.75419 6.74314 5.85677 7.00002C5.9679 7.24834 6.12177 7.47525 6.31838 7.68076C6.51499 7.8777 6.73725 8.05752 6.98515 8.22021C7.23305 8.3829 7.48095 8.51991 7.72885 8.63122C8.38707 8.94804 8.98546 9.29483 9.524 9.67159C10.0625 10.0484 10.5199 10.4765 10.896 10.956C11.2807 11.4269 11.5628 11.9664 11.7423 12.5744C11.9218 13.1823 11.9859 13.8759 11.9346 14.6551C11.8662 15.5199 11.6568 16.2863 11.3063 16.9542C10.9644 17.6221 10.5071 18.1872 9.93432 18.6496C9.37013 19.1034 8.72046 19.4459 7.9853 19.6771C7.25869 19.9083 6.47652 20.0154 5.63879 19.9982C4.72412 19.9725 3.90775 19.8056 3.18969 19.4973C2.48018 19.1805 1.8818 18.7438 1.39454 18.1872C0.915837 17.6221 0.552533 16.9627 0.304631 16.2092C0.0652781 15.4557 -0.0330276 14.6294 0.00971401 13.7303L3.98469 13.7432C3.95904 14.137 3.95477 14.5181 3.97186 14.8863C3.99751 15.2459 4.07444 15.567 4.20267 15.8496C4.33089 16.1236 4.53178 16.3419 4.80532 16.5046C5.07887 16.6673 5.45072 16.7487 5.92088 16.7487C6.33975 16.7487 6.69023 16.6588 6.97233 16.479C7.26297 16.2906 7.4895 16.0423 7.65192 15.734C7.82288 15.4172 7.93829 15.0661 7.99812 14.6808Z" fill="black"/>
<path d="M13.9606 13.3322L14.0888 12.2533C14.1999 11.3627 14.4136 10.515 14.7299 9.71012C15.0462 8.90523 15.4651 8.18596 15.9865 7.55232C16.5165 6.91011 17.1577 6.41348 17.9099 6.0624C18.6622 5.71133 19.5298 5.54864 20.5129 5.57433C21.4532 5.59145 22.2354 5.79268 22.8594 6.178C23.492 6.55476 23.9878 7.05996 24.3468 7.6936C24.7144 8.32724 24.958 9.03795 25.0777 9.82572C25.1974 10.6049 25.2145 11.4098 25.129 12.2404L25.0007 13.345C24.8896 14.2184 24.6759 15.0618 24.3596 15.8753C24.0519 16.6802 23.6287 17.3994 23.0902 18.0331C22.5602 18.6582 21.9233 19.1462 21.1796 19.4973C20.4359 19.8484 19.5726 20.0111 18.5895 19.9854C17.6492 19.9683 16.8627 19.7713 16.2302 19.3946C15.6061 19.0092 15.1103 18.504 14.7428 17.879C14.3837 17.2453 14.1401 16.5389 14.0119 15.7597C13.8922 14.9719 13.8751 14.1627 13.9606 13.3322ZM17.9227 12.2404L17.7945 13.3578C17.7774 13.6147 17.7475 13.9315 17.7048 14.3083C17.6706 14.6851 17.6706 15.0661 17.7048 15.4514C17.7389 15.8367 17.8458 16.1621 18.0253 16.4276C18.2134 16.6845 18.5083 16.8215 18.9101 16.8386C19.3717 16.8728 19.7435 16.7744 20.0256 16.5432C20.3163 16.312 20.5385 16.0123 20.6924 15.6441C20.8548 15.2673 20.9702 14.8734 21.0386 14.4624C21.107 14.0514 21.1625 13.6704 21.2053 13.3193L21.3335 12.2147C21.3506 11.9664 21.3763 11.6496 21.4104 11.2643C21.4446 10.8789 21.4404 10.4979 21.3976 10.1211C21.3634 9.74437 21.2523 9.42327 21.0642 9.15783C20.8847 8.89238 20.5941 8.74682 20.1923 8.72113C19.7478 8.69544 19.3845 8.80247 19.1024 9.04223C18.8289 9.27342 18.6109 9.5774 18.4485 9.95416C18.286 10.3309 18.1664 10.7248 18.0894 11.1358C18.0125 11.5468 17.9569 11.915 17.9227 12.2404Z" fill="black"/>
<path d="M26.5779 13.3322L26.7061 12.2533C26.8173 11.3627 27.031 10.515 27.3473 9.71012C27.6635 8.90523 28.0824 8.18596 28.6039 7.55232C29.1339 6.91011 29.775 6.41348 30.5272 6.0624C31.2795 5.71133 32.1471 5.54864 33.1302 5.57433C34.0705 5.59145 34.8527 5.79268 35.4767 6.178C36.1093 6.55476 36.6051 7.05996 36.9641 7.6936C37.3317 8.32724 37.5753 9.03795 37.695 9.82572C37.8147 10.6049 37.8318 11.4098 37.7463 12.2404L37.6181 13.345C37.5069 14.2184 37.2932 15.0618 36.9769 15.8753C36.6692 16.6802 36.2461 17.3994 35.7075 18.0331C35.1775 18.6582 34.5407 19.1462 33.797 19.4973C33.0533 19.8484 32.1899 20.0111 31.2068 19.9854C30.2665 19.9683 29.4801 19.7713 28.8475 19.3946C28.2235 19.0092 27.7277 18.504 27.3601 17.879C27.0011 17.2453 26.7574 16.5389 26.6292 15.7597C26.5095 14.9719 26.4924 14.1627 26.5779 13.3322ZM30.5401 12.2404L30.4118 13.3578C30.3947 13.6147 30.3648 13.9315 30.3221 14.3083C30.2879 14.6851 30.2879 15.0661 30.3221 15.4514C30.3563 15.8367 30.4631 16.1621 30.6426 16.4276C30.8307 16.6845 31.1256 16.8215 31.5274 16.8386C31.989 16.8728 32.3609 16.7744 32.6429 16.5432C32.9336 16.312 33.1558 16.0123 33.3097 15.6441C33.4721 15.2673 33.5875 14.8734 33.6559 14.4624C33.7243 14.0514 33.7799 13.6704 33.8226 13.3193L33.9508 12.2147C33.9679 11.9664 33.9936 11.6496 34.0278 11.2643C34.062 10.8789 34.0577 10.4979 34.015 10.1211C33.9808 9.74437 33.8696 9.42327 33.6816 9.15783C33.5021 8.89238 33.2114 8.74682 32.8096 8.72113C32.3651 8.69544 32.0018 8.80247 31.7197 9.04223C31.4462 9.27342 31.2282 9.5774 31.0658 9.95416C30.9034 10.3309 30.7837 10.7248 30.7068 11.1358C30.6298 11.5468 30.5743 11.915 30.5401 12.2404Z" fill="black"/>
<path d="M45.8629 0L42.4522 19.7285H38.6311L42.0547 0H45.8629Z" fill="black"/>
<path d="M45.7347 13.3322L45.8629 12.2533C45.9741 11.3627 46.1878 10.515 46.5041 9.71012C46.8203 8.90523 47.2392 8.18596 47.7607 7.55232C48.2907 6.91011 48.9318 6.41348 49.684 6.0624C50.4363 5.71133 51.3039 5.54864 52.287 5.57433C53.2273 5.59145 54.0095 5.79268 54.6335 6.178C55.2661 6.55476 55.7619 7.05996 56.1209 7.6936C56.4885 8.32724 56.7321 9.03795 56.8518 9.82572C56.9715 10.6049 56.9886 11.4098 56.9031 12.2404L56.7749 13.345C56.6637 14.2184 56.45 15.0618 56.1337 15.8753C55.826 16.6802 55.4029 17.3994 54.8643 18.0331C54.3343 18.6582 53.6975 19.1462 52.9538 19.4973C52.2101 19.8484 51.3467 20.0111 50.3636 19.9854C49.4233 19.9683 48.6369 19.7713 48.0043 19.3946C47.3803 19.0092 46.8845 18.504 46.5169 17.879C46.1578 17.2453 45.9142 16.5389 45.786 15.7597C45.6663 14.9719 45.6492 14.1627 45.7347 13.3322ZM49.6969 12.2404L49.5686 13.3578C49.5515 13.6147 49.5216 13.9315 49.4789 14.3083C49.4447 14.6851 49.4447 15.0661 49.4789 15.4514C49.5131 15.8367 49.6199 16.1621 49.7994 16.4276C49.9875 16.6845 50.2824 16.8215 50.6842 16.8386C51.1458 16.8728 51.5177 16.7744 51.7997 16.5432C52.0904 16.312 52.3126 16.0123 52.4665 15.6441C52.6289 15.2673 52.7443 14.8734 52.8127 14.4624C52.8811 14.0514 52.9367 13.6704 52.9794 13.3193L53.1076 12.2147C53.1247 11.9664 53.1504 11.6496 53.1846 11.2643C53.2188 10.8789 53.2145 10.4979 53.1718 10.1211C53.1376 9.74437 53.0264 9.42327 52.8384 9.15783C52.6589 8.89238 52.3682 8.74682 51.9664 8.72113C51.5219 8.69544 51.1586 8.80247 50.8765 9.04223C50.603 9.27342 50.385 9.5774 50.2226 9.95416C50.0602 10.3309 49.9405 10.7248 49.8635 11.1358C49.7866 11.5468 49.731 11.915 49.6969 12.2404Z" fill="black"/>
</svg>
