<svg width="16" height="16" viewBox="0 0 16 16" fill="none" xmlns="http://www.w3.org/2000/svg">
<g clip-path="url(#clip0_1453_8649)">
<path d="M14.4488 12.3691C14.0202 11.987 13.645 11.549 13.3332 11.0668C12.9929 10.4013 12.7889 9.6745 12.7332 8.92906V6.73351C12.7362 5.56267 12.3115 4.43105 11.5389 3.55127C10.7663 2.67149 9.69909 2.10411 8.53769 1.95573V1.3824C8.53769 1.22503 8.47518 1.07412 8.36391 0.962846C8.25264 0.851574 8.10172 0.789062 7.94436 0.789062C7.787 0.789062 7.63608 0.851574 7.52481 0.962846C7.41354 1.07412 7.35102 1.22503 7.35102 1.3824V1.96462C6.20003 2.1237 5.14568 2.69451 4.38326 3.57133C3.62084 4.44815 3.20202 5.57157 3.20436 6.73351V8.92906C3.14869 9.6745 2.9447 10.4013 2.60436 11.0668C2.29808 11.5479 1.92889 11.9858 1.50658 12.3691C1.45917 12.4107 1.42118 12.462 1.39512 12.5195C1.36907 12.5769 1.35555 12.6393 1.35547 12.7024V13.3068C1.35547 13.4247 1.40229 13.5378 1.48564 13.6211C1.56899 13.7045 1.68204 13.7513 1.79991 13.7513H14.1555C14.2733 13.7513 14.3864 13.7045 14.4697 13.6211C14.5531 13.5378 14.5999 13.4247 14.5999 13.3068V12.7024C14.5998 12.6393 14.5863 12.5769 14.5603 12.5195C14.5342 12.462 14.4962 12.4107 14.4488 12.3691ZM2.27991 12.8624C2.69343 12.4629 3.05751 12.0153 3.36436 11.5291C3.79307 10.7253 4.04322 9.83841 4.09769 8.92906V6.73351C4.08006 6.21263 4.16743 5.69354 4.3546 5.20714C4.54176 4.72073 4.8249 4.27697 5.18713 3.90226C5.54937 3.52756 5.98331 3.22958 6.4631 3.02607C6.9429 2.82256 7.45874 2.71769 7.97991 2.71769C8.50108 2.71769 9.01693 2.82256 9.49672 3.02607C9.97652 3.22958 10.4105 3.52756 10.7727 3.90226C11.1349 4.27697 11.4181 4.72073 11.6052 5.20714C11.7924 5.69354 11.8798 6.21263 11.8621 6.73351V8.92906C11.9166 9.83841 12.1668 10.7253 12.5955 11.5291C12.9023 12.0153 13.2664 12.4629 13.6799 12.8624H2.27991Z" fill="black"/>
<path d="M7.9997 15.2355C8.27968 15.2291 8.54835 15.1238 8.75819 14.9384C8.96804 14.7529 9.10554 14.4992 9.14637 14.2222H6.80859C6.85058 14.5068 6.99452 14.7664 7.21362 14.9528C7.43272 15.1392 7.71207 15.2397 7.9997 15.2355Z" fill="black"/>
</g>
<defs>
<clipPath id="clip0_1453_8649">
<rect width="16" height="16" fill="white"/>
</clipPath>
</defs>
</svg>
