<svg width="16" height="16" viewBox="0 0 16 16" fill="none" xmlns="http://www.w3.org/2000/svg">
<path d="M8 14C6.9122 14 5.84884 13.6774 4.94437 13.0731C4.0399 12.4687 3.33495 11.6098 2.91867 10.6048C2.50238 9.59977 2.39346 8.4939 2.60568 7.42701C2.8179 6.36011 3.34173 5.3801 4.11092 4.61092C4.8801 3.84173 5.86011 3.3179 6.92701 3.10568C7.9939 2.89346 9.09977 3.00238 10.1048 3.41867C11.1098 3.83495 11.9687 4.5399 12.5731 5.44437C13.1774 6.34884 13.5 7.41221 13.5 8.5C13.5 9.95869 12.9205 11.3576 11.8891 12.3891C10.8576 13.4205 9.45869 14 8 14ZM8 4C7.10999 4 6.23996 4.26392 5.49994 4.75839C4.75991 5.25286 4.18314 5.95566 3.84254 6.77793C3.50195 7.60019 3.41284 8.50499 3.58647 9.37791C3.7601 10.2508 4.18869 11.0526 4.81802 11.682C5.44736 12.3113 6.24918 12.7399 7.1221 12.9135C7.99501 13.0872 8.89981 12.9981 9.72208 12.6575C10.5443 12.3169 11.2471 11.7401 11.7416 11.0001C12.2361 10.26 12.5 9.39002 12.5 8.5C12.5 7.30653 12.0259 6.16194 11.182 5.31802C10.3381 4.47411 9.19348 4 8 4Z" fill="black"/>
<path d="M9.295 10.5001L7.5 8.70506V5.50006H8.5V8.29006L10 9.79506L9.295 10.5001ZM2 3.79606L3.791 2.00156L4.499 2.70806L2.708 4.50256L2 3.79606ZM11.5 2.70406L12.2075 1.99756L13.998 3.79206L13.2905 4.49856L11.5 2.70406Z" fill="black"/>
</svg>
