<svg width="18" height="18" viewBox="0 0 18 18" fill="none" xmlns="http://www.w3.org/2000/svg">
<g clip-path="url(#clip0_1923_9737)">
<path d="M9.00016 17.14C9.31512 17.1327 9.61738 17.0143 9.85346 16.8057C10.0895 16.5971 10.2442 16.3117 10.2902 16H7.66016C7.70739 16.3202 7.86932 16.6123 8.11581 16.822C8.3623 17.0317 8.67657 17.1447 9.00016 17.14Z" fill="current"/>
<path fill-rule="evenodd" clip-rule="evenodd" d="M15.0023 12.4497C15.3531 12.9921 15.7752 13.4849 16.2573 13.9147C16.3107 13.9616 16.3534 14.0192 16.3827 14.0839C16.412 14.1486 16.4273 14.2187 16.4273 14.2897V14.9697C16.4273 15.1023 16.3747 15.2295 16.2809 15.3233C16.1871 15.417 16.06 15.4697 15.9273 15.4697H2.02734C1.89474 15.4697 1.76756 15.417 1.67379 15.3233C1.58002 15.2295 1.52734 15.1023 1.52734 14.9697V14.2897C1.52743 14.2187 1.54264 14.1486 1.57195 14.0839C1.60126 14.0192 1.64401 13.9616 1.69734 13.9147C2.17244 13.4836 2.58778 12.9909 2.93234 12.4497C3.31523 11.701 3.54472 10.8833 3.60734 10.0447V7.57471C3.60471 6.26753 4.07589 5.00369 4.93361 4.01726C5.79133 3.03083 6.97747 2.38867 8.27234 2.20971V1.55471C8.27234 1.37767 8.34267 1.20789 8.46785 1.08271C8.59303 0.957533 8.76281 0.887207 8.93984 0.887207C9.11687 0.887207 9.28666 0.957533 9.41184 1.08271C9.53702 1.20789 9.60734 1.37767 9.60734 1.55471V2.19971C10.4539 2.30786 11.2559 2.61388 11.9522 3.08514C11.5725 3.1675 11.2144 3.30735 10.8872 3.49512C10.821 3.46304 10.7541 3.4326 10.6863 3.40384C10.1465 3.1749 9.56616 3.05691 8.97984 3.05691C8.39353 3.05691 7.8132 3.1749 7.27343 3.40384C6.73366 3.63279 6.24548 3.96802 5.83797 4.38956C5.43045 4.8111 5.11193 5.31034 4.90137 5.85754C4.69081 6.40474 4.59251 6.98873 4.61234 7.57471V10.0447C4.55106 11.0677 4.26965 12.0654 3.78734 12.9697C3.44214 13.5167 3.03255 14.0203 2.56734 14.4697H15.3923C14.9271 14.0203 14.5175 13.5167 14.1723 12.9697C13.7535 12.1844 13.4861 11.3285 13.3829 10.4469C13.7178 10.39 14.0376 10.2888 14.336 10.1494C14.4094 10.9513 14.6354 11.7322 15.0023 12.4497Z" fill="current"/>
<circle cx="12.75" cy="6.75" r="2.25" fill="#F04438"/>
</g>
<defs>
<clipPath id="clip0_1923_9737">
<rect width="18" height="18" fill="white"/>
</clipPath>
</defs>
</svg>
