<svg width="48" height="48" viewBox="0 0 48 48" fill="none" xmlns="http://www.w3.org/2000/svg">
<circle cx="24" cy="24" r="20" stroke="black" stroke-width="4" stroke-dasharray="1.1 8"/>
<g clip-path="url(#clip0_1496_10392)">
<path d="M33.6752 30.5531C33.0323 29.98 32.4695 29.323 32.0018 28.5998C31.4913 27.6015 31.1853 26.5113 31.1018 25.3931V22.0998C31.1062 20.3435 30.4692 18.6461 29.3103 17.3264C28.1515 16.0068 26.5506 15.1557 24.8085 14.9331V14.0731C24.8085 13.8371 24.7147 13.6107 24.5478 13.4438C24.3809 13.2769 24.1545 13.1831 23.9185 13.1831C23.6824 13.1831 23.4561 13.2769 23.2892 13.4438C23.1223 13.6107 23.0285 13.8371 23.0285 14.0731V14.9464C21.302 15.1851 19.7205 16.0413 18.5768 17.3565C17.4332 18.6717 16.805 20.3569 16.8085 22.0998V25.3931C16.725 26.5113 16.419 27.6015 15.9085 28.5998C15.4491 29.3213 14.8953 29.9783 14.2618 30.5531C14.1907 30.6156 14.1337 30.6925 14.0946 30.7787C14.0556 30.8649 14.0353 30.9585 14.0352 31.0531V31.9598C14.0352 32.1366 14.1054 32.3062 14.2304 32.4312C14.3554 32.5562 14.525 32.6264 14.7018 32.6264H33.2352C33.412 32.6264 33.5815 32.5562 33.7066 32.4312C33.8316 32.3062 33.9018 32.1366 33.9018 31.9598V31.0531C33.9017 30.9585 33.8814 30.8649 33.8423 30.7787C33.8033 30.6925 33.7463 30.6156 33.6752 30.5531ZM15.4218 31.2931C16.0421 30.6939 16.5882 30.0224 17.0485 29.2931C17.6916 28.0874 18.0668 26.7571 18.1485 25.3931V22.0998C18.122 21.3185 18.2531 20.5398 18.5339 19.8102C18.8146 19.0806 19.2393 18.415 19.7827 17.8529C20.326 17.2909 20.9769 16.8439 21.6966 16.5386C22.4163 16.2334 23.1901 16.076 23.9718 16.076C24.7536 16.076 25.5273 16.2334 26.247 16.5386C26.9667 16.8439 27.6176 17.2909 28.161 17.8529C28.7043 18.415 29.129 19.0806 29.4098 19.8102C29.6905 20.5398 29.8216 21.3185 29.7952 22.0998V25.3931C29.8769 26.7571 30.2521 28.0874 30.8952 29.2931C31.3554 30.0224 31.9016 30.6939 32.5218 31.2931H15.4218Z" fill="black"/>
<path d="M24.0015 34.8535C24.4215 34.8438 24.8245 34.6859 25.1392 34.4078C25.454 34.1296 25.6603 33.7491 25.7215 33.3335H22.2148C22.2778 33.7604 22.4937 34.1498 22.8224 34.4294C23.151 34.709 23.5701 34.8597 24.0015 34.8535Z" fill="black"/>
</g>
<defs>
<clipPath id="clip0_1496_10392">
<rect width="24" height="24" fill="white" transform="translate(12 12)"/>
</clipPath>
</defs>
</svg>
