<svg width="500" height="500" viewBox="0 0 500 500" fill="none" xmlns="http://www.w3.org/2000/svg">
<rect width="500" height="500" fill="#F63D68"/>
<mask id="path-1-inside-1_1036_7810" fill="white">
<path fill-rule="evenodd" clip-rule="evenodd" d="M198.067 177.073C197.828 177.421 197.59 177.77 197.354 178.121C186.994 193.517 179.816 219.638 179.816 238.243C179.816 284.574 212.499 306.753 251.648 306.753C294.467 306.753 320.858 278.266 320.858 238.243C320.858 217.38 310.887 195.178 298.096 177.073H198.067Z"/>
</mask>
<path fill-rule="evenodd" clip-rule="evenodd" d="M198.067 177.073C197.828 177.421 197.59 177.77 197.354 178.121C186.994 193.517 179.816 219.638 179.816 238.243C179.816 284.574 212.499 306.753 251.648 306.753C294.467 306.753 320.858 278.266 320.858 238.243C320.858 217.38 310.887 195.178 298.096 177.073H198.067Z" fill="white"/>
<path d="M197.354 178.121L200.673 180.354L200.673 180.354L197.354 178.121ZM198.067 177.073V173.073H195.965L194.773 174.805L198.067 177.073ZM298.096 177.073L301.363 174.765L300.167 173.073H298.096V177.073ZM200.673 180.354C200.901 180.015 201.131 179.677 201.362 179.341L194.773 174.805C194.525 175.164 194.279 175.525 194.035 175.888L200.673 180.354ZM183.816 238.243C183.816 220.336 190.808 195.014 200.673 180.354L194.035 175.888C183.18 192.021 175.816 218.94 175.816 238.243H183.816ZM251.648 302.753C232.789 302.753 215.842 297.411 203.673 286.851C191.587 276.364 183.816 260.393 183.816 238.243H175.816C175.816 262.424 184.387 280.708 198.43 292.894C212.389 305.006 231.357 310.753 251.648 310.753V302.753ZM316.858 238.243C316.858 257.364 310.568 273.43 299.461 284.699C288.366 295.956 272.143 302.753 251.648 302.753V310.753C273.972 310.753 292.354 303.307 305.159 290.315C317.952 277.334 324.858 259.144 324.858 238.243H316.858ZM294.829 179.381C307.38 197.147 316.858 218.54 316.858 238.243H324.858C324.858 216.22 314.393 193.209 301.363 174.765L294.829 179.381ZM298.096 173.073H198.067V181.073H298.096V173.073Z" fill="#1D2939" mask="url(#path-1-inside-1_1036_7810)"/>
<path d="M296.274 177.2C296.274 177.691 295.8 178.769 293.339 180.171C291.034 181.484 287.565 182.734 283.105 183.809C274.216 185.951 261.834 187.296 248.084 187.296C234.335 187.296 221.952 185.951 213.063 183.809C208.603 182.734 205.134 181.484 202.829 180.171C200.368 178.769 199.895 177.691 199.895 177.2C199.895 176.71 200.368 175.632 202.829 174.23C205.134 172.916 208.603 171.666 213.063 170.592C221.952 168.449 234.335 167.104 248.084 167.104C261.834 167.104 274.216 168.449 283.105 170.592C287.565 171.666 291.034 172.916 293.339 174.23C295.8 175.632 296.274 176.71 296.274 177.2Z" fill="#D9D9D9" stroke="#1D2939" stroke-width="4"/>
<path d="M245.815 297.142C198.545 295.102 187.95 255.994 189.427 236.753C207.589 223.099 222.464 228.876 253.253 247.605C277.883 262.589 302.03 253.848 311.024 247.605C307.788 268.358 291.041 299.094 245.815 297.142Z" fill="#F63D68" stroke="#C01048" stroke-width="4"/>
<path d="M127.734 239.732L127.956 241.183L129.407 241.405C137.236 242.607 143.794 244.683 148.333 247.241C152.988 249.864 154.955 252.644 154.955 255.069C154.955 257.493 152.988 260.273 148.333 262.897C143.794 265.454 137.236 267.531 129.407 268.732L127.956 268.955L127.734 270.406C126.532 278.235 124.456 284.792 121.898 289.331C119.275 293.986 116.495 295.954 114.07 295.954C111.646 295.954 108.866 293.986 106.242 289.331C103.685 284.792 101.608 278.235 100.407 270.406L100.184 268.955L98.7335 268.732C90.9043 267.531 84.347 265.454 79.8081 262.897C75.1529 260.273 73.1854 257.493 73.1854 255.069C73.1854 252.644 75.1529 249.864 79.8081 247.241C84.3469 244.683 90.9043 242.607 98.7335 241.405L100.184 241.183L100.407 239.732C101.608 231.903 103.685 225.345 106.242 220.806C108.866 216.151 111.646 214.184 114.07 214.184C116.495 214.184 119.275 216.151 121.898 220.806C124.456 225.345 126.532 231.903 127.734 239.732Z" fill="white" stroke="#1D2939" stroke-width="4"/>
<path d="M399.734 239.732L399.956 241.183L401.407 241.405C409.236 242.607 415.794 244.683 420.333 247.241C424.988 249.864 426.955 252.644 426.955 255.069C426.955 257.493 424.988 260.273 420.333 262.897C415.794 265.454 409.236 267.531 401.407 268.732L399.956 268.955L399.734 270.406C398.532 278.235 396.456 284.792 393.898 289.331C391.275 293.986 388.495 295.954 386.07 295.954C383.646 295.954 380.866 293.986 378.242 289.331C375.685 284.792 373.608 278.235 372.407 270.406L372.184 268.955L370.733 268.732C362.904 267.531 356.347 265.454 351.808 262.897C347.153 260.273 345.185 257.493 345.185 255.069C345.185 252.644 347.153 249.864 351.808 247.241C356.347 244.683 362.904 242.607 370.733 241.405L372.184 241.183L372.407 239.732C373.608 231.903 375.685 225.345 378.242 220.806C380.866 216.151 383.646 214.184 386.07 214.184C388.495 214.184 391.275 216.151 393.898 220.806C396.456 225.345 398.532 231.903 399.734 239.732Z" fill="white" stroke="#1D2939" stroke-width="4"/>
<ellipse cx="253" cy="329" rx="45" ry="10" fill="#C01048"/>
<ellipse cx="253" cy="329" rx="45" ry="10" fill="url(#paint0_radial_1036_7810)" fill-opacity="0.1"/>
<defs>
<radialGradient id="paint0_radial_1036_7810" cx="0" cy="0" r="1" gradientUnits="userSpaceOnUse" gradientTransform="translate(253 323) rotate(90) scale(16 72)">
<stop stop-color="white"/>
<stop offset="1" stop-color="white" stop-opacity="0"/>
</radialGradient>
</defs>
</svg>
