<svg width="16" height="16" viewBox="0 0 16 16" fill="none" xmlns="http://www.w3.org/2000/svg">
<mask id="mask0_930_372" style="mask-type:alpha" maskUnits="userSpaceOnUse" x="0" y="0" width="16" height="16">
<path fill-rule="evenodd" clip-rule="evenodd" d="M6.4257 0.333008C3.06286 0.333008 0.332031 3.0374 0.332031 6.37923C0.332031 9.72106 3.06286 12.4255 6.4257 12.4255C7.67945 12.4255 8.84569 12.0494 9.81498 11.4047L13.7904 15.3473C14.2193 15.7727 14.9136 15.7727 15.3425 15.3473C15.773 14.9204 15.773 14.2271 15.3425 13.8002L11.3926 9.8828C12.1019 8.89455 12.5194 7.68498 12.5194 6.37923C12.5194 3.0374 9.78854 0.333008 6.4257 0.333008ZM2.52986 6.37923C2.52986 4.24945 4.27148 2.51823 6.4257 2.51823C8.57992 2.51823 10.3215 4.24945 10.3215 6.37923C10.3215 8.50901 8.57992 10.2402 6.4257 10.2402C4.27148 10.2402 2.52986 8.50901 2.52986 6.37923Z" fill="#006FFD"/>
</mask>
<g mask="url(#mask0_930_372)">
<rect width="16" height="16" fill="#2F3036"/>
</g>
</svg>
