<svg width="53" height="18" viewBox="0 0 53 18" fill="none" xmlns="http://www.w3.org/2000/svg">
<rect x="0.5" width="52" height="18" rx="9" fill="#12B76A"/>
<path d="M12.8163 6.66367C12.2707 7.6616 10.9517 8.35221 9.61188 8.55939L9.30801 7.95166C10.8481 7.75138 12.4157 6.79144 12.4157 5.65884V5.25829H13.203V5.65884C13.203 6.76381 14.7845 7.75138 16.297 7.95166L16.0069 8.55939C14.6809 8.35566 13.3653 7.65124 12.8163 6.66367ZM8.85221 9.88536V9.26381H16.7666V9.88536H8.85221ZM12.8025 10.7072C14.6671 10.7003 15.7859 11.2459 15.7928 12.2403C15.7859 13.2279 14.6671 13.7804 12.8025 13.7873C10.924 13.7804 9.80525 13.2279 9.80525 12.2403C9.80525 11.2459 10.924 10.7003 12.8025 10.7072ZM12.8025 13.1727C14.1837 13.1796 15.0193 12.8412 15.0262 12.2403C15.0193 11.6464 14.1837 11.3011 12.8025 11.2942C11.4144 11.3011 10.5787 11.6464 10.5856 12.2403C10.5787 12.8412 11.4144 13.1796 12.8025 13.1727ZM24.0467 5.12017H24.8133V11.4669H24.0467V5.12017ZM20.1241 9.98895C18.8257 9.99586 17.8451 9.11878 17.8451 7.85497C17.8451 6.60497 18.8257 5.7279 20.1241 5.7279C21.4224 5.7279 22.3962 6.60497 22.3962 7.85497C22.3962 9.11878 21.4224 9.99586 20.1241 9.98895ZM18.5978 7.85497C18.5909 8.71823 19.247 9.31906 20.1241 9.31906C20.9873 9.31906 21.6503 8.71823 21.6503 7.85497C21.6503 7.00552 20.9873 6.39779 20.1241 6.39779C19.247 6.39779 18.5909 7.00552 18.5978 7.85497ZM19.9721 10.8177V12.9655H25.0826V13.6008H19.2056V10.8177H19.9721ZM33.2122 5.12017V8.06215H34.5106V8.71133H33.2122V11.7638H32.4457V5.12017H33.2122ZM31.8863 9.53315L31.9484 10.1064C30.1045 10.4378 28.0258 10.4655 26.5202 10.4655L26.4305 9.83011C27.1038 9.83356 27.8945 9.82666 28.7233 9.79903V8.91851C27.6494 8.8011 26.9277 8.14848 26.9346 7.23343C26.9277 6.20442 27.8117 5.52072 29.0824 5.52072C30.3531 5.52072 31.2371 6.20442 31.244 7.23343C31.2371 8.13467 30.5396 8.78384 29.4899 8.91505V9.7645C30.3013 9.71961 31.1266 9.6471 31.8863 9.53315ZM27.6528 7.23343C27.6459 7.89641 28.2399 8.3453 29.0824 8.35221C29.9318 8.3453 30.512 7.89641 30.5189 7.23343C30.512 6.56354 29.9318 6.11464 29.0824 6.11464C28.2399 6.11464 27.6459 6.56354 27.6528 7.23343ZM27.7012 11.1837H28.4678V12.9517H33.5299V13.5939H27.7012V11.1837ZM41.0172 10.424V12.0677H43.1788V12.7169H35.2299V12.0677H37.4675V10.424H36.2244V7.74447H41.4178V6.39088H36.2037V5.75552H42.1775V8.37983H36.9841V9.78867H42.3777V10.424H41.0172ZM40.2645 10.424H38.2134V12.0677H40.2645V10.424Z" fill="white"/>
</svg>
