<svg width="360" height="70" viewBox="0 0 360 70" fill="none" xmlns="http://www.w3.org/2000/svg">
<circle cx="180" cy="24" r="20" stroke="black" stroke-width="4" stroke-dasharray="1.1 8"/>
<path d="M186.751 20.25H179.251C179.052 20.25 178.861 20.329 178.721 20.4697C178.58 20.6103 178.501 20.8011 178.501 21V24C178.503 25.0625 178.88 26.0901 179.566 26.9012C180.253 27.7123 181.203 28.2547 182.251 28.4325V33H180.001V34.5H186.001V33H183.751V28.4325C184.798 28.2547 185.749 27.7123 186.435 26.9012C187.122 26.0901 187.499 25.0625 187.501 24V21C187.501 20.8011 187.422 20.6103 187.281 20.4697C187.141 20.329 186.95 20.25 186.751 20.25ZM186.001 24C186.001 24.7956 185.685 25.5587 185.122 26.1213C184.56 26.6839 183.797 27 183.001 27C182.205 27 181.442 26.6839 180.88 26.1213C180.317 25.5587 180.001 24.7956 180.001 24V21.75H186.001V24Z" fill="black"/>
<path d="M179.251 12.75H175.501C175.302 12.75 175.111 12.829 174.971 12.9697C174.83 13.1103 174.751 13.3011 174.751 13.5V19.0275C174.022 19.4545 173.426 20.0751 173.029 20.8206C172.632 21.566 172.449 22.407 172.501 23.25V33.75C172.501 33.9489 172.58 34.1397 172.721 34.2803C172.861 34.421 173.052 34.5 173.251 34.5H177.001V33H174.001V23.25C174.001 20.859 175.674 20.235 175.738 20.2118L176.251 20.04V14.25H178.501V18H180.001V13.5C180.001 13.3011 179.922 13.1103 179.781 12.9697C179.641 12.829 179.45 12.75 179.251 12.75Z" fill="black"/>
<path d="M124.456 56.9682H125.529V65.8826H124.456V56.9682ZM119.259 60.8598C118.732 62.3536 117.63 63.5477 116.209 64.1229L115.619 63.2818C117.456 62.5663 118.703 60.7873 118.703 58.8633V57.645H119.796V58.8633C119.786 60.7196 121.052 62.3826 122.86 63.0401L122.3 63.9006C120.893 63.3543 119.796 62.2617 119.259 60.8598ZM118.751 65.0608V67.9517H125.906V68.8412H117.678V65.0608H118.751ZM131.023 61.261C130.501 62.5905 129.389 63.6395 127.943 64.1229L127.421 63.2914C129.21 62.692 130.467 61.2127 130.467 59.5594V59.308H127.721V58.4378H130.467V56.9006H131.55V58.4378H134.267V59.308H131.53V59.5594C131.53 61.0773 132.836 62.4406 134.634 62.9627L134.112 63.8039C132.7 63.3785 131.574 62.4599 131.023 61.261ZM133.89 61.3287V60.4392H136.384V56.9586H137.457V64.326H136.384V61.3287H133.89ZM133.426 64.645C135.949 64.645 137.496 65.4475 137.496 66.8591C137.496 68.2707 135.949 69.0829 133.426 69.0829C130.892 69.0829 129.345 68.2707 129.355 66.8591C129.345 65.4475 130.892 64.645 133.426 64.645ZM133.426 68.232C135.292 68.232 136.432 67.7099 136.432 66.8591C136.432 65.9986 135.292 65.4959 133.426 65.4862C131.559 65.4959 130.409 65.9986 130.419 66.8591C130.409 67.7099 131.559 68.232 133.426 68.232ZM143.459 58.4572H146.543V59.337H139.301V58.4572H142.395V56.9682H143.459V58.4572ZM148.776 56.9682V60.971H150.604V61.8798H148.776V66.076H147.703V56.9682H148.776ZM145.847 62.2762C145.837 63.6395 144.658 64.5193 142.927 64.5193C141.167 64.5193 139.988 63.6395 139.997 62.2762C139.988 60.8936 141.167 60.0041 142.927 60.0041C144.658 60.0041 145.837 60.8936 145.847 62.2762ZM141.022 62.2762C141.013 63.1271 141.776 63.6782 142.927 63.6685C144.058 63.6782 144.822 63.1271 144.832 62.2762C144.822 61.4061 144.058 60.8453 142.927 60.8453C141.776 60.8453 141.013 61.4061 141.022 62.2762ZM141.167 65.3412H142.231V67.9517H149.337V68.8412H141.167V65.3412ZM160.528 63.6782V66.6464H165.594V67.5456H154.466V66.6464H159.464V63.6782H155.781V57.9738H164.211V63.6782H160.528ZM163.167 58.8439H156.825V62.8177H163.167V58.8439ZM175.318 56.9682H176.391V63.9102H175.318V56.9682ZM169.826 57.6064C171.673 57.6064 173.007 58.7569 173.007 60.4586C173.007 62.1215 171.673 63.2818 169.826 63.2818C167.98 63.2818 166.636 62.1215 166.636 60.4586C166.636 58.7569 167.98 57.6064 169.826 57.6064ZM169.826 58.5249C168.579 58.5152 167.68 59.3177 167.689 60.4586C167.68 61.5801 168.579 62.3729 169.826 62.3729C171.064 62.3729 171.963 61.5801 171.963 60.4586C171.963 59.3177 171.064 58.5152 169.826 58.5249ZM168.482 64.5677H176.391V68.9475H168.482V64.5677ZM175.337 65.4378H169.546V68.0677H175.337V65.4378ZM187.188 56.9586H188.261V69.1312H187.188V56.9586ZM181.803 57.8964C183.601 57.9061 184.906 59.5497 184.906 62.1312C184.906 64.7224 183.601 66.366 181.803 66.366C179.985 66.366 178.699 64.7224 178.699 62.1312C178.699 59.5497 179.985 57.9061 181.803 57.8964ZM181.803 58.8536C180.585 58.8633 179.734 60.1588 179.734 62.1312C179.734 64.1133 180.585 65.4088 181.803 65.4088C183.021 65.4088 183.862 64.1133 183.862 62.1312C183.862 60.1588 183.021 58.8633 181.803 58.8536ZM202.439 63.3978V60.7196H199.892C199.679 62.1457 198.432 63.0884 196.783 63.0884C194.937 63.0884 193.622 61.9572 193.631 60.2942C193.622 58.6312 194.937 57.5 196.783 57.5C198.413 57.5 199.65 58.4185 199.887 59.8204H202.439V56.9586H203.513V63.3978H202.439ZM196.783 62.2086C198.011 62.1989 198.891 61.4061 198.891 60.2942C198.891 59.1823 198.011 58.3992 196.783 58.3992C195.536 58.3992 194.656 59.1823 194.656 60.2942C194.656 61.4061 195.536 62.1989 196.783 62.2086ZM202.536 64.0069V65.0414C202.526 66.3273 203.3 67.6713 204.789 68.2224L204.228 69.0442C203.107 68.5946 202.372 67.739 202 66.7238C201.608 67.7196 200.868 68.5801 199.79 69.0442L199.23 68.2224C200.699 67.6133 201.473 66.279 201.482 65.0414V64.0069H202.536ZM195.855 65.6022H198.069V64.0843H199.065V68.9475H194.84V64.0843H195.855V65.6022ZM195.855 68.0967H198.069V66.4337H195.855V68.0967ZM210.873 59.0421C210.099 60.4102 208.238 61.3577 206.362 61.6381L205.956 60.7873C208.122 60.4876 210.317 59.2113 210.317 57.6644V57.0939H211.419V57.6644C211.419 59.163 213.633 60.5069 215.77 60.7873L215.373 61.6381C213.493 61.3577 211.641 60.3957 210.873 59.0421ZM205.328 63.3978V62.4986H216.408V63.3978H205.328ZM207.803 65.6699H213.875V64.2486H214.958V68.9475H206.739V64.2486H207.803V65.6699ZM207.803 68.0773H213.875V66.5207H207.803V68.0773ZM226.17 69.1119V56.9586H227.234V69.1119H226.17ZM219.064 58.1575V65.0414C220.92 65.0366 222.83 64.8916 224.875 64.4613L225.02 65.3798C222.864 65.8246 220.94 65.9793 218.996 65.9793H218.01V58.1575H219.064ZM238.514 61.7638H240.545V62.663H238.514V69.1312H237.441V56.9586H238.514V61.7638ZM230.712 59.0276V65.1768C232.911 65.172 234.468 65.0849 236.271 64.7514L236.407 65.6796C234.502 66.018 232.907 66.0856 230.596 66.0856H229.639V58.1478H235.314V59.0276H230.712ZM242.282 68.0773C241.799 68.0773 241.393 67.6809 241.403 67.1975C241.393 66.7141 241.799 66.3177 242.282 66.3177C242.766 66.3177 243.162 66.7141 243.162 67.1975C243.162 67.6809 242.766 68.0773 242.282 68.0773Z" fill="#1D2939"/>
</svg>
