<svg width="24" height="24" viewBox="0 0 24 24" fill="none" xmlns="http://www.w3.org/2000/svg">
<rect x="0.5" y="0.5" width="23" height="23" rx="7.5" fill="white"/>
<path fill-rule="evenodd" clip-rule="evenodd" d="M10.5473 5.49291C11.7777 5.21848 13.0606 5.2985 14.2473 5.72369C15.4341 6.14888 16.4759 6.90181 17.252 7.89515C18.0281 8.88848 18.5067 10.0815 18.6322 11.3358C18.6689 11.7022 18.4016 12.0289 18.0353 12.0656C17.6689 12.1022 17.3422 11.835 17.3055 11.4686C17.2051 10.4651 16.8222 9.51072 16.2013 8.71605C15.5805 7.92138 14.747 7.31904 13.7976 6.97888C12.8482 6.63873 11.8219 6.57472 10.8376 6.79426C9.85333 7.01381 8.95147 7.50792 8.23664 8.21928C7.52182 8.93064 7.02333 9.83009 6.79899 10.8133C6.57466 11.7965 6.63369 12.8231 6.96922 13.7742C7.30475 14.7252 7.90304 15.5616 8.69468 16.1863C9.48632 16.8111 10.4389 17.1986 11.4418 17.3039C11.808 17.3423 12.0737 17.6703 12.0352 18.0365C11.9968 18.4027 11.6688 18.6683 11.3026 18.6299C10.0489 18.4983 8.85822 18.0139 7.86867 17.233C6.87912 16.452 6.13126 15.4065 5.71185 14.2178C5.29243 13.029 5.21865 11.7457 5.49907 10.5167C5.77948 9.28769 6.4026 8.16338 7.29613 7.27418C8.18966 6.38498 9.31699 5.76734 10.5473 5.49291ZM9.33221 10.6662C9.33221 10.298 9.63069 9.99955 9.99888 9.99955H10.0055C10.3737 9.99955 10.6722 10.298 10.6722 10.6662C10.6722 11.0344 10.3737 11.3329 10.0055 11.3329H9.99888C9.63069 11.3329 9.33221 11.0344 9.33221 10.6662ZM13.3322 10.6662C13.3322 10.298 13.6307 9.99955 13.9989 9.99955H14.0055C14.3737 9.99955 14.6722 10.298 14.6722 10.6662C14.6722 11.0344 14.3737 11.3329 14.0055 11.3329H13.9989C13.6307 11.3329 13.3322 11.0344 13.3322 10.6662ZM17.2689 14.6628C17.1726 14.6628 17.0772 14.6818 16.9882 14.7186C16.8992 14.7555 16.8184 14.8095 16.7503 14.8776L16.7482 14.8797L16.7482 14.8797L14.6655 16.9441V17.9995H15.721L17.7854 15.9169L17.7875 15.9148C17.8556 15.8467 17.9096 15.7659 17.9465 15.6769C17.9833 15.5879 18.0023 15.4925 18.0023 15.3962C18.0023 15.2999 17.9833 15.2045 17.9465 15.1156C17.9096 15.0266 17.8556 14.9457 17.7875 14.8776C17.7194 14.8095 17.6385 14.7555 17.5495 14.7186C17.4606 14.6818 17.3652 14.6628 17.2689 14.6628ZM16.478 13.4868C16.7287 13.3829 16.9975 13.3295 17.2689 13.3295C17.5403 13.3295 17.809 13.3829 18.0598 13.4868C18.3105 13.5907 18.5384 13.7429 18.7303 13.9348C18.9222 14.1267 19.0744 14.3546 19.1783 14.6053C19.2822 14.8561 19.3356 15.1248 19.3356 15.3962C19.3356 15.6676 19.2822 15.9364 19.1783 16.1871C19.0746 16.4374 18.9228 16.6648 18.7314 16.8565C18.731 16.8569 18.7307 16.8572 18.7303 16.8576L16.4724 19.1355C16.3472 19.2618 16.1767 19.3329 15.9989 19.3329H13.9989C13.6307 19.3329 13.3322 19.0344 13.3322 18.6662V16.6662C13.3322 16.4884 13.4033 16.3179 13.5296 16.1927L15.8075 13.9348C15.8079 13.9344 15.8082 13.934 15.8086 13.9337C16.0003 13.7423 16.2277 13.5905 16.478 13.4868ZM9.86579 13.5232C10.1289 13.2656 10.551 13.2701 10.8086 13.5331C11.1049 13.8358 11.5258 13.9995 11.9989 13.9995C12.0616 13.9995 12.1237 13.9966 12.1858 13.9906C12.5523 13.9554 12.878 14.224 12.9132 14.5905C12.9483 14.957 12.6798 15.2826 12.3133 15.3178C12.2088 15.3279 12.1042 15.3329 11.9989 15.3329C11.2186 15.3329 10.4368 15.0593 9.85587 14.466C9.59828 14.2029 9.60272 13.7808 9.86579 13.5232Z" fill="black"/>
<rect x="0.5" y="0.5" width="23" height="23" rx="7.5" stroke="#E4E7EC"/>
</svg>
