<svg width="43" height="18" viewBox="0 0 43 18" fill="none" xmlns="http://www.w3.org/2000/svg">
<rect width="43" height="18" rx="9" fill="#F04438"/>
<path d="M14.7818 8.60083V5.11326H15.5414V13.7942H14.7818V9.24309H12.7099V8.60083H14.7818ZM12.7307 6.05939C12.7238 8.51796 11.6809 10.7003 8.78039 12.1367L8.35912 11.529C10.7141 10.386 11.8018 8.71133 11.9572 6.68094H8.73895V6.05939H12.7307ZM21.8202 7.68923V7.05387H23.5743V5.11326H24.334V9.60221H23.5743V7.68923H21.8202ZM19.7726 7.64779C19.3893 8.58356 18.5847 9.34668 17.5661 9.69889L17.1793 9.09116C18.45 8.65608 19.3824 7.57182 19.3824 6.44613V6.20442H17.421V5.56906H22.0964V6.20442H20.1489V6.45994C20.1489 7.48895 21.026 8.49033 22.276 8.88398L21.9031 9.49171C20.9155 9.17058 20.1455 8.49378 19.7726 7.64779ZM19.4859 12.1091V13.0829H24.6655V13.6975H18.7263V11.5221H23.5743V10.6588H18.7056V10.0304H24.334V12.1091H19.4859ZM32.3462 10.3964V5.12017H33.1059V10.3964H32.3462ZM31.628 9.11878L31.6763 9.67818C29.7771 9.99586 27.657 10.0166 26.0893 10.0166L25.9926 9.40193C26.7281 9.40193 27.581 9.39848 28.465 9.3674V8.33149H26.7661V5.59668H30.9788V6.23204H27.5396V7.70304H31.041V8.33149H29.2385V9.33633C30.0465 9.29489 30.8614 9.22583 31.628 9.11878ZM33.1059 13.6768H27.3945V10.8246H33.1059V13.6768ZM32.3669 11.4392H28.1473V13.0483H32.3669V11.4392Z" fill="white"/>
</svg>
