<svg width="360" height="70" viewBox="0 0 360 70" fill="none" xmlns="http://www.w3.org/2000/svg">
<circle cx="180" cy="24" r="20" stroke="black" stroke-width="4" stroke-dasharray="1.1 8"/>
<path d="M186.624 24.7267C186.42 24.2415 186.188 23.6917 185.962 23.013C185.369 21.2362 187.262 19.2982 187.28 19.2802L186.22 18.2198C186.115 18.3248 183.653 20.8282 184.538 23.487C184.783 24.2205 185.027 24.7995 185.242 25.3095C185.742 26.2984 186.002 27.3916 186 28.5C185.912 29.3934 185.569 30.2427 185.012 30.9465C184.455 31.6504 183.707 32.1791 182.858 32.4697C183.126 31.418 183.122 30.3153 182.846 29.2655C182.57 28.2157 182.031 27.2536 181.28 26.4697L180.497 25.6868L180.061 26.7045C178.684 29.9175 177.045 31.32 176.081 31.905C175.49 31.5427 174.992 31.0451 174.631 30.4531C174.269 29.8612 174.053 29.1918 174 28.5C174.052 27.5559 174.288 26.6311 174.697 25.7782C175.181 24.7502 175.454 23.6355 175.5 22.5V21.1665C176.155 21.4365 177 22.1438 177 24V25.9523L178.307 24.5018C180.641 21.9113 180.155 18.8265 179.212 16.7708C179.928 17.0096 180.544 17.4827 180.959 18.1138C181.374 18.7449 181.565 19.4974 181.5 20.25H183C183 16.0972 179.566 15 177.75 15H176.25L177.15 16.1992C177.253 16.338 179.297 19.1445 178.165 21.9653C177.913 21.2564 177.451 20.641 176.841 20.2006C176.232 19.7603 175.502 19.5159 174.75 19.5H174V22.5C173.948 23.4441 173.712 24.3689 173.303 25.2218C172.819 26.2498 172.546 27.3645 172.5 28.5C172.5 31.386 175.367 34.5 180 34.5C184.633 34.5 187.5 31.386 187.5 28.5C187.501 27.1917 187.201 25.9007 186.624 24.7267ZM177.626 32.6445C179.01 31.4993 180.127 30.0666 180.901 28.446C181.315 29.1133 181.55 29.8757 181.583 30.6599C181.617 31.4441 181.449 32.2239 181.094 32.9242C180.732 32.9731 180.366 32.9984 180 33C179.195 33.0056 178.394 32.8856 177.626 32.6445Z" fill="black"/>
<path d="M124.823 61.8605V56.9586H125.867V69.1119H124.823V62.75H123.131V68.5028H122.116V57.2873H123.131V61.8605H124.823ZM115.967 58.5345H120.724C120.714 61.6285 119.631 64.5483 116.131 66.5014L115.503 65.7376C118.336 64.1616 119.496 61.9378 119.675 59.424H115.967V58.5345ZM137.457 63.2431H136.384V60.0815H133.677V59.192H136.384V56.9586H137.457V63.2431ZM131.013 60.3087C130.491 61.6913 129.394 62.7548 127.953 63.2721L127.373 62.4116C129.2 61.8025 130.457 60.2749 130.467 58.4959V57.3453H131.521V58.4959C131.511 60.0912 132.768 61.5511 134.547 62.1312L133.967 62.9724C132.623 62.4938 131.55 61.5366 131.013 60.3087ZM130.66 66.7528V68.0773H137.912V68.9475H129.606V65.9309H136.394V64.7224H129.577V63.8619H137.457V66.7528H130.66ZM143.459 58.4572H146.543V59.337H139.301V58.4572H142.395V56.9682H143.459V58.4572ZM148.776 56.9682V60.971H150.604V61.8798H148.776V66.076H147.703V56.9682H148.776ZM145.847 62.2762C145.837 63.6395 144.658 64.5193 142.927 64.5193C141.167 64.5193 139.988 63.6395 139.997 62.2762C139.988 60.8936 141.167 60.0041 142.927 60.0041C144.658 60.0041 145.837 60.8936 145.847 62.2762ZM141.022 62.2762C141.013 63.1271 141.776 63.6782 142.927 63.6685C144.058 63.6782 144.822 63.1271 144.832 62.2762C144.822 61.4061 144.058 60.8453 142.927 60.8453C141.776 60.8453 141.013 61.4061 141.022 62.2762ZM141.167 65.3412H142.231V67.9517H149.337V68.8412H141.167V65.3412ZM160.528 63.6782V66.6464H165.594V67.5456H154.466V66.6464H159.464V63.6782H155.781V57.9738H164.211V63.6782H160.528ZM163.167 58.8439H156.825V62.8177H163.167V58.8439ZM175.318 56.9682H176.391V63.9102H175.318V56.9682ZM169.826 57.6064C171.673 57.6064 173.007 58.7569 173.007 60.4586C173.007 62.1215 171.673 63.2818 169.826 63.2818C167.98 63.2818 166.636 62.1215 166.636 60.4586C166.636 58.7569 167.98 57.6064 169.826 57.6064ZM169.826 58.5249C168.579 58.5152 167.68 59.3177 167.689 60.4586C167.68 61.5801 168.579 62.3729 169.826 62.3729C171.064 62.3729 171.963 61.5801 171.963 60.4586C171.963 59.3177 171.064 58.5152 169.826 58.5249ZM168.482 64.5677H176.391V68.9475H168.482V64.5677ZM175.337 65.4378H169.546V68.0677H175.337V65.4378ZM187.188 56.9586H188.261V69.1312H187.188V56.9586ZM181.803 57.8964C183.601 57.9061 184.906 59.5497 184.906 62.1312C184.906 64.7224 183.601 66.366 181.803 66.366C179.985 66.366 178.699 64.7224 178.699 62.1312C178.699 59.5497 179.985 57.9061 181.803 57.8964ZM181.803 58.8536C180.585 58.8633 179.734 60.1588 179.734 62.1312C179.734 64.1133 180.585 65.4088 181.803 65.4088C183.021 65.4088 183.862 64.1133 183.862 62.1312C183.862 60.1588 183.021 58.8633 181.803 58.8536ZM202.439 63.3978V60.7196H199.892C199.679 62.1457 198.432 63.0884 196.783 63.0884C194.937 63.0884 193.622 61.9572 193.631 60.2942C193.622 58.6312 194.937 57.5 196.783 57.5C198.413 57.5 199.65 58.4185 199.887 59.8204H202.439V56.9586H203.513V63.3978H202.439ZM196.783 62.2086C198.011 62.1989 198.891 61.4061 198.891 60.2942C198.891 59.1823 198.011 58.3992 196.783 58.3992C195.536 58.3992 194.656 59.1823 194.656 60.2942C194.656 61.4061 195.536 62.1989 196.783 62.2086ZM202.536 64.0069V65.0414C202.526 66.3273 203.3 67.6713 204.789 68.2224L204.228 69.0442C203.107 68.5946 202.372 67.739 202 66.7238C201.608 67.7196 200.868 68.5801 199.79 69.0442L199.23 68.2224C200.699 67.6133 201.473 66.279 201.482 65.0414V64.0069H202.536ZM195.855 65.6022H198.069V64.0843H199.065V68.9475H194.84V64.0843H195.855V65.6022ZM195.855 68.0967H198.069V66.4337H195.855V68.0967ZM210.873 59.0421C210.099 60.4102 208.238 61.3577 206.362 61.6381L205.956 60.7873C208.122 60.4876 210.317 59.2113 210.317 57.6644V57.0939H211.419V57.6644C211.419 59.163 213.633 60.5069 215.77 60.7873L215.373 61.6381C213.493 61.3577 211.641 60.3957 210.873 59.0421ZM205.328 63.3978V62.4986H216.408V63.3978H205.328ZM207.803 65.6699H213.875V64.2486H214.958V68.9475H206.739V64.2486H207.803V65.6699ZM207.803 68.0773H213.875V66.5207H207.803V68.0773ZM226.17 69.1119V56.9586H227.234V69.1119H226.17ZM219.064 58.1575V65.0414C220.92 65.0366 222.83 64.8916 224.875 64.4613L225.02 65.3798C222.864 65.8246 220.94 65.9793 218.996 65.9793H218.01V58.1575H219.064ZM238.514 61.7638H240.545V62.663H238.514V69.1312H237.441V56.9586H238.514V61.7638ZM230.712 59.0276V65.1768C232.911 65.172 234.468 65.0849 236.271 64.7514L236.407 65.6796C234.502 66.018 232.907 66.0856 230.596 66.0856H229.639V58.1478H235.314V59.0276H230.712ZM242.282 68.0773C241.799 68.0773 241.393 67.6809 241.403 67.1975C241.393 66.7141 241.799 66.3177 242.282 66.3177C242.766 66.3177 243.162 66.7141 243.162 67.1975C243.162 67.6809 242.766 68.0773 242.282 68.0773Z" fill="#1D2939"/>
</svg>
