<svg width="500" height="500" viewBox="0 0 500 500" fill="none" xmlns="http://www.w3.org/2000/svg">
<rect width="500" height="500" fill="#FEA3B4"/>
<path opacity="0.16" d="M136.676 327.206C136.676 312.531 142.506 298.456 152.883 288.079C163.26 277.702 177.334 271.873 192.009 271.873H308.676C323.351 271.873 337.425 277.702 347.802 288.079C358.179 298.456 364.009 312.531 364.009 327.206C364.009 334.146 361.252 340.801 356.345 345.709C351.438 350.616 344.782 353.373 337.842 353.373H162.842C155.903 353.373 149.247 350.616 144.34 345.709C139.433 340.801 136.676 334.146 136.676 327.206Z" fill="white" stroke="white" stroke-width="6"/>
<path d="M133.676 327.206C133.676 311.735 139.822 296.898 150.761 285.958C161.701 275.018 176.538 268.873 192.009 268.873H308.676C324.147 268.873 338.984 275.018 349.924 285.958C360.863 296.898 367.009 311.735 367.009 327.206C367.009 334.941 363.936 342.36 358.466 347.83C352.997 353.3 345.578 356.373 337.842 356.373H162.842C155.107 356.373 147.688 353.3 142.218 347.83C136.749 342.36 133.676 334.941 133.676 327.206Z" stroke="white" stroke-width="8" stroke-linejoin="round"/>
<path d="M250.34 231.471C274.502 231.471 294.09 211.883 294.09 187.721C294.09 163.558 274.502 143.971 250.34 143.971C226.177 143.971 206.59 163.558 206.59 187.721C206.59 211.883 226.177 231.471 250.34 231.471Z" stroke="white" stroke-width="8"/>
</svg>
