<svg width="24" height="24" viewBox="0 0 24 24" fill="none" xmlns="http://www.w3.org/2000/svg">
<path fill-rule="evenodd" clip-rule="evenodd" d="M9.82296 2.23985C11.6685 1.8282 13.5929 1.94823 15.373 2.58602C17.153 3.2238 18.7158 4.3532 19.88 5.84321C21.0441 7.33321 21.762 9.12275 21.9503 11.0042C22.0053 11.5538 21.6044 12.0438 21.0548 12.0988C20.5053 12.1538 20.0152 11.7529 19.9602 11.2034C19.8096 9.6982 19.2353 8.26657 18.304 7.07457C17.3726 5.88256 16.1224 4.97904 14.6984 4.46881C13.2743 3.95858 11.7348 3.86256 10.2584 4.19188C8.78195 4.5212 7.42916 5.26237 6.35692 6.32941C5.28468 7.39645 4.53694 8.74562 4.20044 10.2204C3.86395 11.6952 3.95248 13.2352 4.45578 14.6617C4.95908 16.0882 5.85651 17.3428 7.04397 18.2799C8.23143 19.2171 9.66025 19.7983 11.1647 19.9563C11.714 20.0139 12.1125 20.506 12.0548 21.0552C11.9971 21.6045 11.5051 22.003 10.9559 21.9453C9.07531 21.7479 7.28929 21.0213 5.80496 19.8499C4.32064 18.6785 3.19885 17.1103 2.56973 15.3271C1.9406 13.544 1.82993 11.619 2.25056 9.77552C2.67118 7.93202 3.60585 6.24556 4.94615 4.91176C6.28644 3.57797 7.97744 2.65151 9.82296 2.23985ZM8.00027 9.99981C8.00027 9.44752 8.44798 8.99981 9.00027 8.99981H9.01027C9.56255 8.99981 10.0103 9.44752 10.0103 9.99981C10.0103 10.5521 9.56255 10.9998 9.01027 10.9998H9.00027C8.44798 10.9998 8.00027 10.5521 8.00027 9.99981ZM14.0003 9.99981C14.0003 9.44752 14.448 8.99981 15.0003 8.99981H15.0103C15.5626 8.99981 16.0103 9.44752 16.0103 9.99981C16.0103 10.5521 15.5626 10.9998 15.0103 10.9998H15.0003C14.448 10.9998 14.0003 10.5521 14.0003 9.99981ZM19.9053 15.9947C19.7608 15.9947 19.6177 16.0232 19.4843 16.0784C19.3508 16.1337 19.2295 16.2148 19.1274 16.3169L19.1243 16.32L19.1243 16.32L16.0003 19.4166V20.9998H17.5835L20.6801 17.8758L20.6832 17.8727C20.7853 17.7705 20.8663 17.6493 20.9216 17.5158C20.9769 17.3823 21.0054 17.2393 21.0054 17.0948C21.0054 16.9503 20.9769 16.8073 20.9216 16.6738C20.8663 16.5403 20.7853 16.4191 20.6832 16.3169C20.581 16.2148 20.4597 16.1337 20.3263 16.0784C20.1928 16.0232 20.0497 15.9947 19.9053 15.9947ZM18.7189 14.2307C19.095 14.0749 19.4982 13.9947 19.9053 13.9947C20.3124 13.9947 20.7155 14.0749 21.0916 14.2307C21.4677 14.3865 21.8095 14.6148 22.0974 14.9027C22.3852 15.1906 22.6136 15.5323 22.7694 15.9084C22.9252 16.2846 23.0054 16.6877 23.0054 17.0948C23.0054 17.5019 22.9252 17.905 22.7694 18.2812C22.6139 18.6565 22.3861 18.9977 22.0991 19.2852C22.0985 19.2858 22.0979 19.2863 22.0974 19.2869L18.7105 22.7038C18.5227 22.8932 18.267 22.9998 18.0003 22.9998H15.0003C14.448 22.9998 14.0003 22.5521 14.0003 21.9998V18.9998C14.0003 18.7331 14.1068 18.4774 14.2963 18.2896L17.7132 14.9027C17.7137 14.9021 17.7143 14.9016 17.7149 14.901C18.0024 14.6139 18.3435 14.3862 18.7189 14.2307ZM8.80064 14.2853C9.19526 13.8989 9.82839 13.9056 10.2148 14.3002C10.6594 14.7542 11.2907 14.9998 12.0003 14.9998C12.0943 14.9998 12.1874 14.9953 12.2807 14.9864C12.8305 14.9336 13.3189 15.3365 13.3717 15.8862C13.4245 16.436 13.0216 16.9245 12.4718 16.9772C12.3151 16.9923 12.1582 16.9998 12.0003 16.9998C10.8299 16.9998 9.65716 16.5894 8.78576 15.6994C8.39937 15.3048 8.40603 14.6717 8.80064 14.2853Z" fill="white"/>
</svg>
