<svg width="44" height="18" viewBox="0 0 44 18" fill="none" xmlns="http://www.w3.org/2000/svg">
<rect x="0.5" width="43" height="18" rx="9" fill="#E4E7EC"/>
<path d="M15.5373 8.60083V5.11326H16.2693V13.7942H15.5373V9.23619H14.2666V13.3384H13.5552V5.30663H14.2666V8.60083H15.5373ZM9.93646 6.80525V10.9903C11.1347 10.9869 11.9599 10.9385 12.9199 10.7417L12.989 11.384C11.9461 11.605 11.0622 11.6395 9.72928 11.6464H9.16989V6.1768H12.4227V6.80525H9.93646ZM24.0536 13.7942V5.11326H24.8202V13.7942H24.0536ZM18.1558 6.05939H22.2511C22.2442 8.55249 21.084 10.7624 18.1696 12.1644L17.7553 11.5359C20.1034 10.424 21.3016 8.75276 21.4708 6.68094H18.1558V6.05939ZM27.1625 8.64917L26.8863 8.04144C28.3918 7.87914 29.8421 7.11602 29.8973 6.14227H27.1625V5.52072H33.6404V6.14227H30.8918C30.9401 7.11602 32.3766 7.87914 33.9097 8.04144L33.6266 8.64917C32.2005 8.47307 30.8711 7.83771 30.3945 6.87086C29.9146 7.83771 28.5886 8.47307 27.1625 8.64917ZM34.3517 9.17403V9.80939H30.7675V10.7348C32.4042 10.8073 33.3711 11.3425 33.378 12.2541C33.3711 13.2279 32.2523 13.7735 30.3876 13.7735C28.5092 13.7735 27.3904 13.2279 27.3904 12.2541C27.3904 11.3425 28.3607 10.8073 30.0078 10.7348V9.80939H26.4374V9.17403H34.3517ZM32.6114 12.2541C32.6045 11.6671 31.7689 11.3287 30.3876 11.3218C28.9995 11.3287 28.1639 11.6671 28.1708 12.2541C28.1639 12.8343 28.9995 13.1796 30.3876 13.1727C31.7689 13.1796 32.6045 12.8343 32.6114 12.2541Z" fill="#344054"/>
</svg>
