<svg width="24" height="24" viewBox="0 0 24 24" fill="none" xmlns="http://www.w3.org/2000/svg">
<path d="M12 21.75L13.305 22.5L15.87 18H19.5C20.2956 18 21.0587 17.6839 21.6213 17.1213C22.1839 16.5587 22.5 15.7956 22.5 15V6C22.5 5.20435 22.1839 4.44129 21.6213 3.87868C21.0587 3.31607 20.2956 3 19.5 3H4.5C3.70435 3 2.94129 3.31607 2.37868 3.87868C1.81607 4.44129 1.5 5.20435 1.5 6V15C1.5 15.7956 1.81607 16.5587 2.37868 17.1213C2.94129 17.6839 3.70435 18 4.5 18H11.25V16.5H4.5C4.10218 16.5 3.72064 16.342 3.43934 16.0607C3.15804 15.7794 3 15.3978 3 15V6C3 5.60218 3.15804 5.22064 3.43934 4.93934C3.72064 4.65804 4.10218 4.5 4.5 4.5H19.5C19.8978 4.5 20.2794 4.65804 20.5607 4.93934C20.842 5.22064 21 5.60218 21 6V15C21 15.3978 20.842 15.7794 20.5607 16.0607C20.2794 16.342 19.8978 16.5 19.5 16.5H15L12 21.75Z" fill="current"/>
<path d="M18 7.5H6V9H18V7.5Z" fill="current"/>
<path d="M13.5 12H6V13.5H13.5V12Z" fill="current"/>
</svg>
