<svg width="current" height="current" viewBox="0 0 22 22" fill="current" xmlns="http://www.w3.org/2000/svg">
<path d="M20.9323 2.0222L14.9323 0.522203C14.779 0.484178 14.6177 0.495196 14.471 0.553703L7.196 3.4637L1.43225 2.0222C1.32166 1.9945 1.20622 
1.99237 1.09468 2.01598C0.98315 2.03959 0.878467 2.08832 0.78859 2.15845C0.698714 2.22859 0.626009 2.31829 0.576002 2.42074C0.525996 2.5232 
0.500003 2.6357 0.5 2.7497V19.2497C0.500004 19.4169 0.555877 19.5793 0.658742 19.7111C0.761606 19.8429 0.905565 19.9366 1.06775 19.9772L7.06775 
21.4772C7.12738 21.492 7.18857 21.4995 7.25 21.4997C7.3456 21.4997 7.44032 21.4814 7.529 21.4457L14.804 18.5357L20.5685 19.9772C20.679 20.0048 
20.7944 20.0068 20.9058 19.9831C21.0173 19.9595 21.1219 19.9107 21.2116 19.8406C21.3014 19.7705 21.3741 19.6808 21.424 19.5784C21.474 19.476 21.5 
19.3636 21.5 19.2497V2.7497C21.5 2.58251 21.4441 2.42011 21.3413 2.2883C21.2384 2.15649 21.0944 2.06283 20.9323 2.0222ZM20 7.2497H15.5V2.2097L20 
3.3347V7.2497ZM6.5 13.2497H2V8.7497H6.5V13.2497ZM8 7.2497V4.75745L14 2.35745V7.2497H8ZM14 8.7497V13.2497H8V8.7497H14ZM8 14.7497H14V17.242L8 
19.642V14.7497ZM15.5 8.7497H20V13.2497H15.5V8.7497ZM6.5 4.8347V7.2497H2V3.7097L6.5 4.8347ZM2 14.7497H6.5V19.7897L2 18.6647V14.7497ZM15.5 
17.164V14.7497H20V18.2897L15.5 17.164Z" fill="current"/>
</svg>
