<svg width="24" height="24" viewBox="0 0 24 24" fill="none" xmlns="http://www.w3.org/2000/svg">
<path d="M21.9323 3.0222L15.9323 1.5222C15.779 1.48418 15.6177 1.4952 15.471 1.5537L8.196 4.4637L2.43225 3.0222C2.32166 2.9945 2.20622 2.99237 2.09468 3.01598C1.98315 3.03959 1.87847 3.08832 1.78859 3.15845C1.69871 3.22859 1.62601 3.31829 1.576 3.42074C1.526 3.5232 1.5 3.6357 1.5 3.7497V20.2497C1.5 20.4169 1.55588 20.5793 1.65874 20.7111C1.76161 20.8429 1.90557 20.9366 2.06775 20.9772L8.06775 22.4772C8.12738 22.492 8.18857 22.4995 8.25 22.4997C8.3456 22.4997 8.44032 22.4814 8.529 22.4457L15.804 19.5357L21.5685 20.9772C21.679 21.0048 21.7944 21.0068 21.9058 20.9831C22.0173 20.9595 22.1219 20.9107 22.2116 20.8406C22.3014 20.7705 22.3741 20.6808 22.424 20.5784C22.474 20.476 22.5 20.3636 22.5 20.2497V3.7497C22.5 3.58251 22.4441 3.42011 22.3413 3.2883C22.2384 3.15649 22.0944 3.06283 21.9323 3.0222ZM21 8.2497H16.5V3.2097L21 4.3347V8.2497ZM7.5 14.2497H3V9.7497H7.5V14.2497ZM9 8.2497V5.75745L15 3.35745V8.2497H9ZM15 9.7497V14.2497H9V9.7497H15ZM9 15.7497H15V18.242L9 20.642V15.7497ZM16.5 9.7497H21V14.2497H16.5V9.7497ZM7.5 5.8347V8.2497H3V4.7097L7.5 5.8347ZM3 15.7497H7.5V20.7897L3 19.6647V15.7497ZM16.5 18.164V15.7497H21V19.2897L16.5 18.164Z" fill="current"/>
</svg>
