<svg width="24" height="24" viewBox="0 0 24 24" fill="none" xmlns="http://www.w3.org/2000/svg">
<path d="M18.624 12.7267C18.42 12.2415 18.1875 11.6917 17.9618 11.013C17.3692 9.23625 19.2623 7.29825 19.2803 7.28025L18.2197 6.21975C18.1147 6.32475 15.6525 8.82825 16.5382 11.487C16.7828 12.2205 17.0273 12.7995 17.2418 13.3095C17.7423 14.2984 18.0021 15.3916 18 16.5C17.9121 17.3934 17.5691 18.2427 17.0119 18.9465C16.4547 19.6504 15.7069 20.1791 14.8575 20.4697C15.1258 19.418 15.1218 18.3153 14.8459 17.2655C14.5699 16.2157 14.0311 15.2536 13.2803 14.4697L12.4973 13.6868L12.0607 14.7045C10.6837 17.9175 9.045 19.32 8.08125 19.905C7.48961 19.5427 6.99244 19.0451 6.63062 18.4531C6.2688 17.8612 6.05267 17.1918 6 16.5C6.05174 15.5559 6.28847 14.6311 6.69675 13.7782C7.18095 12.7502 7.45409 11.6355 7.5 10.5V9.1665C8.1555 9.4365 9 10.1438 9 12V13.9523L10.3073 12.5018C12.6412 9.91125 12.1545 6.8265 11.2118 4.77075C11.9284 5.00962 12.5438 5.4827 12.9588 6.11382C13.3739 6.74494 13.5645 7.49738 13.5 8.25H15C15 4.09725 11.5658 3 9.75 3H8.25L9.15 4.19925C9.25275 4.338 11.2965 7.1445 10.1648 9.96525C9.9129 9.25641 9.45137 8.64095 8.84145 8.20063C8.23153 7.7603 7.50209 7.51594 6.75 7.5H6V10.5C5.94826 11.4441 5.71153 12.3689 5.30325 13.2218C4.81905 14.2498 4.54591 15.3645 4.5 16.5C4.5 19.386 7.36725 22.5 12 22.5C16.6327 22.5 19.5 19.386 19.5 16.5C19.5011 15.1917 19.2014 13.9007 18.624 12.7267ZM9.62625 20.6445C11.0097 19.4993 12.1274 18.0666 12.9015 16.446C13.3148 17.1133 13.5496 17.8757 13.5833 18.6599C13.6171 19.4441 13.4487 20.2239 13.0942 20.9242C12.7315 20.9731 12.366 20.9984 12 21C11.1951 21.0056 10.3942 20.8856 9.62625 20.6445Z" fill="current"/>
</svg>
