<svg width="current" height="current" viewBox="0 0 16 20" fill="current" xmlns="http://www.w3.org/2000/svg">
<path d="M14.624 9.72675C14.42 9.2415 14.1875 8.69175 13.9618 8.013C13.3692 6.23625 15.2623 4.29825 15.2803 4.28025L14.2197 3.21975C14.1147 3.32475 11.6525 5.82825 
12.5382 8.487C12.7828 9.2205 13.0273 9.7995 13.2418 10.3095C13.7423 11.2984 14.0021 12.3916 14 13.5C13.9121 14.3934 13.5691 15.2427 13.0119 
15.9465C12.4547 16.6504 11.7069 17.1791 10.8575 17.4697C11.1258 16.418 11.1218 15.3153 10.8459 14.2655C10.5699 13.2157 10.0311 12.2536 9.28025 
11.4697L8.49725 10.6868L8.06075 11.7045C6.68375 14.9175 5.045 16.32 4.08125 16.905C3.48961 16.5427 2.99244 16.0451 2.63062 15.4531C2.2688 14.8612
 2.05267 14.1918 2 13.5C2.05174 12.5559 2.28847 11.6311 2.69675 10.7782C3.18095 9.75018 3.45409 8.63546 3.5 7.5V6.1665C4.1555 6.4365 5 7.14375 5 
 9V10.9523L6.30725 9.50175C8.64125 6.91125 8.1545 3.8265 7.21175 1.77075C7.92837 2.00962 8.54375 2.4827 8.95883 3.11382C9.37391 3.74494 9.56453 
 4.49738 9.5 5.25H11C11 1.09725 7.56575 0 5.75 0H4.25L5.15 1.19925C5.25275 1.338 7.2965 4.1445 6.16475 6.96525C5.9129 6.25641 5.45137 5.64095 
 4.84145 5.20063C4.23153 4.7603 3.50209 4.51594 2.75 4.5H2V7.5C1.94826 8.44413 1.71153 9.36889 1.30325 10.2218C0.819047 11.2498 0.545913 12.3645 
 0.5 13.5C0.5 16.386 3.36725 19.5 8 19.5C12.6327 19.5 15.5 16.386 15.5 13.5C15.5011 12.1917 15.2014 10.9007 14.624 9.72675ZM5.62625 17.6445C7.00975 
 16.4993 8.12737 15.0666 8.9015 13.446C9.31479 14.1133 9.54959 14.8757 9.58334 15.6599C9.6171 16.4441 9.44867 17.2239 9.09425 17.9242C8.73151 17.9731 
 8.366 17.9984 8 18C7.19509 18.0056 6.39422 17.8856 5.62625 17.6445Z" fill="current"/>
</svg>
